<?xml version="1.0" encoding="UTF-8" standalone="no"?>
<svg
   xmlns:dc="http://purl.org/dc/elements/1.1/"
   xmlns:cc="http://creativecommons.org/ns#"
   xmlns:rdf="http://www.w3.org/1999/02/22-rdf-syntax-ns#"
   xmlns:svg="http://www.w3.org/2000/svg"
   xmlns="http://www.w3.org/2000/svg"
   xmlns:sodipodi="http://sodipodi.sourceforge.net/DTD/sodipodi-0.dtd"
   xmlns:inkscape="http://www.inkscape.org/namespaces/inkscape"
   width="744.09448"
   height="875"
   id="svg3039"
   version="1.1"
   inkscape:version="0.48.4 r9939"
   sodipodi:docname="europe.svg">
  <metadata
     id="metadata3053">
    <rdf:RDF>
      <cc:Work
         rdf:about="">
        <dc:format>image/svg+xml</dc:format>
        <dc:type
           rdf:resource="http://purl.org/dc/dcmitype/StillImage" />
        <dc:title>Europe Map Blue</dc:title>
      </cc:Work>
    </rdf:RDF>
  </metadata>
  <defs
     id="defs3051" />
  <sodipodi:namedview
     pagecolor="#ffffff"
     bordercolor="#666666"
     borderopacity="1"
     objecttolerance="10"
     gridtolerance="10"
     guidetolerance="10"
     inkscape:pageopacity="0"
     inkscape:pageshadow="2"
     inkscape:window-width="1453"
     inkscape:window-height="933"
     id="namedview3049"
     showgrid="false"
     inkscape:zoom="0.5244712"
     inkscape:cx="718.62097"
     inkscape:cy="99.224481"
     inkscape:window-x="309"
     inkscape:window-y="59"
     inkscape:window-maximized="0"
     inkscape:current-layer="layer1" />
  <title
     id="title3041">Europe Map Blue</title>
  <g
     id="layer1">
    <path
       style="fill:#5895c4"
       d="m 469.71466,833.60797 c -0.60721,-0.96649 -2.86526,-1.76941 -5.01788,-1.78418 -2.15262,-0.0148 -5.11963,-0.80023 -6.59335,-1.74542 -1.84488,-1.18323 0.10263,-1.41321 6.25219,-0.73834 13.28974,1.45849 16.97028,2.39142 16.97028,4.30145 0,2.26593 -10.18512,2.23651 -11.61124,-0.0335 z"
       id="path3988" />
    <path
       style="fill:#5895c4"
       d="m 612.80615,818.50842 c -0.66845,-1.71368 0.0692,-4.32147 1.73444,-6.13165 5.08642,-5.52905 -0.0856,-9.31628 -5.47821,-4.01135 -2.18073,2.14526 -3.43659,2.36816 -4.95075,0.87866 -2.90454,-2.85742 -9.4154,-2.46173 -12.11322,0.73608 -2.81921,3.3418 -7.64947,5.96106 -14.61883,7.92737 -4.37085,1.23315 -6.00739,0.76154 -9.59155,-2.7644 -3.75324,-3.69226 -17.39429,-9.65223 -22.09186,-9.65223 -0.87982,0 -1.85657,1.75953 -2.17047,3.91004 -0.66828,4.57739 -7.37543,8.37964 -12.46997,7.06903 -1.9574,-0.5036 -4.29963,-2.83203 -5.2049,-5.17438 -0.90521,-2.34234 -2.3963,-3.80261 -3.31341,-3.24499 -0.91706,0.55755 -2.83082,-0.62018 -4.25269,-2.61719 -2.03101,-2.8526 -3.68475,-3.37097 -7.7142,-2.41815 -2.82093,0.66699 -4.57566,0.62317 -3.89945,-0.0975 0.67624,-0.72064 -0.84787,-3.20428 -3.38693,-5.51916 -2.53906,-2.31488 -3.69525,-4.20886 -2.56928,-4.20886 1.12595,0 2.04722,-1.18616 2.04722,-2.63599 0,-1.44977 -1.20582,-2.63599 -2.67954,-2.63599 -1.47375,0 -2.67953,-1.18615 -2.67953,-2.63592 0,-1.44983 1.00482,-2.64813 2.23294,-2.6629 1.55047,-0.0187 1.44909,-0.51484 -0.33173,-1.62342 -2.10455,-1.31006 -2.15283,-2.08459 -0.26916,-4.31738 1.89334,-2.24426 1.78418,-3.22388 -0.62314,-5.59204 -2.40833,-2.3692 -2.5174,-3.35126 -0.62396,-5.61731 2.02169,-2.41962 1.60412,-2.61169 -3.51105,-1.61505 -4.75589,0.92657 -5.80066,0.58295 -5.77826,-1.90033 0.069,-7.64539 8.01508,-10.71649 28.5542,-11.03607 6.38617,-0.0994 10.40546,-0.66602 8.9317,-1.25922 -1.76825,-0.71173 -0.24951,-1.8139 4.46588,-3.24084 4.04401,-1.22382 5.55591,-2.22095 3.48334,-2.29737 -3.49121,-0.12878 -7.94922,-3.16107 -7.94922,-5.40698 0,-1.22137 14.67505,-0.49316 21.86053,1.08478 3.53315,0.77588 5.1922,0.29968 5.97846,-1.71594 1.91345,-4.9054 23.29785,-13.62079 32.625,-13.29657 4.57068,0.15881 9.64447,-0.25818 11.27502,-0.92676 2.04914,-0.84015 3.30872,-0.14948 4.07849,2.23645 1.23938,3.84149 7.52607,6.23157 9.23523,3.51098 0.60395,-0.96124 2.03925,0.10144 3.18958,2.36164 1.15039,2.26019 3.67151,4.19146 5.60254,4.29168 1.93103,0.10029 5.92254,1.15815 8.87005,2.3509 8.36652,3.38568 15.73035,4.11944 22.60376,2.25244 4.15247,-1.12787 7.40711,-1.11548 9.49915,0.0362 3.54925,1.95398 15.9975,-0.9303 20.5943,-4.77179 1.47369,-1.23157 6.44281,-2.63196 11.04242,-3.11188 7.80401,-0.81433 8.73504,-0.45916 13.93109,5.31452 3.71899,4.13238 4.97381,6.77185 3.7785,7.94769 -1.05218,1.03516 -1.16058,2.91687 -0.26306,4.56671 0.8396,1.54334 1.80682,3.59687 2.14935,4.56342 0.34247,0.96649 2.63239,1.75726 5.08856,1.75726 4.08649,0 4.6427,0.89069 3.84064,6.15064 -0.14734,0.96655 -1.55969,1.75732 -3.13855,1.75732 -1.94769,0 -2.50256,0.9436 -1.72583,2.93481 3.18054,8.15375 4.60492,18.6615 2.81702,20.78083 -1.35846,1.61017 -1.19293,2.49469 0.59277,3.16882 1.36249,0.51434 2.90833,2.55689 3.43524,4.53894 0.90961,3.42181 0.33698,3.56909 -11.34063,2.91632 -6.86377,-0.38367 -12.77362,0.0686 -13.37354,1.02356 -0.67993,1.08222 -1.94281,1.0025 -3.4364,-0.21692 -1.6333,-1.33349 -2.71844,-1.3598 -3.5191,-0.0853 -0.63666,1.01342 -4.69776,1.84265 -9.02466,1.84265 -4.32684,0 -11.97943,1.5946 -17.00574,3.54358 -7.91089,3.06756 -10.0954,3.26171 -16.25836,1.44525 -5.56281,-1.63953 -8.44861,-1.62561 -13.19782,0.0638 -4.63885,1.65015 -6.992,1.68109 -9.93701,0.13061 -3.0321,-1.59637 -4.18866,-1.52215 -5.39911,0.3465 -0.84723,1.30798 -1.15564,3.40888 -0.68536,4.66876 0.47021,1.25983 -0.64191,3.87116 -2.47138,5.80304 -3.03582,3.20557 -3.42797,3.2519 -4.48956,0.53052 z"
       id="path3986" />
    <path
       style="fill:#5895c4"
       d="m 80.084664,818.20459 c -1.096146,-0.71008 -3.679726,-4.5647 -5.741356,-8.56574 -2.50248,-4.85668 -5.55101,-7.89282 -9.171684,-9.13452 -6.059593,-2.07806 -6.914112,-5.59704 -2.430233,-10.00805 2.444157,-2.40442 2.597752,-3.56714 0.837421,-6.34009 -1.725342,-2.71784 -1.632263,-4.13074 0.466309,-7.07825 2.312576,-3.24798 2.298553,-4.16815 -0.11887,-7.79767 -2.48447,-3.73016 -2.460911,-4.3905 0.251987,-7.05932 1.64608,-1.61933 2.603973,-4.40711 2.12867,-6.19513 -0.475296,-1.78803 -0.08357,-3.72553 0.870514,-4.3056 0.954102,-0.58008 1.505882,-3.20075 1.226196,-5.82367 -0.310806,-2.91504 1.082809,-6.75916 3.584839,-9.88831 2.348511,-2.93713 3.277237,-5.38684 2.17878,-5.74701 -1.052963,-0.34534 -1.914513,-2.14355 -1.914513,-3.99603 0,-2.5174 -1.263397,-3.36817 -5.001762,-3.36817 -2.750969,0 -5.779293,0.7649 -6.729622,1.69977 -1.995281,1.96283 -9.704758,0.42316 -9.704758,-1.93823 0,-0.87219 -2.009644,-1.08966 -4.465862,-0.48315 -3.828941,0.94537 -4.46587,0.50464 -4.46587,-3.09021 0,-2.30597 -1.275551,-5.98426 -2.834568,-8.17389 -2.234653,-3.13861 -2.380852,-4.51892 -0.690762,-6.52228 1.179089,-1.39764 2.784019,-2.15186 3.566528,-1.67615 2.315102,1.4076 7.104191,-1.08276 7.104191,-3.69421 0,-3.36261 8.37035,-5.12744 11.643669,-2.45496 1.674641,1.36725 5.918179,1.86884 11.41518,1.34918 4.812279,-0.45483 10.234169,0.0281 12.048599,1.07331 1.814445,1.04516 10.935616,2.08398 20.269253,2.30835 20.84318,0.5011 28.73236,1.44934 30.16282,3.62549 2.52962,3.84826 12.58637,7.13543 21.70923,7.09594 14.99591,-0.0649 16.0091,0.1352 16.0091,3.16114 0,1.70068 0.99633,2.44787 2.50486,1.87835 1.37769,-0.52008 2.98224,-0.47601 3.56566,0.098 1.89685,1.86603 11.79294,2.24933 11.79294,0.45679 0,-0.95837 0.80385,-1.74249 1.78635,-1.74249 0.98248,0 1.78634,2.23193 1.78634,4.95978 0,5.77429 -8.44566,12.11322 -21.08401,15.82476 -4.22751,1.24158 -8.18766,3.59699 -8.8003,5.23426 -0.61262,1.63733 -4.34016,7.51623 -8.28337,13.06421 l -7.16946,10.08728 2.93999,6.065 c 2.91188,6.00708 2.88952,6.11822 -2.34027,11.62573 -2.90415,3.05835 -5.28026,7.05865 -5.28026,8.88946 0,2.11536 -1.25498,3.3288 -3.44264,3.3288 -1.89347,0 -5.8629,2.88849 -8.821,6.41882 -4.86457,5.80567 -6.19954,6.40924 -13.97425,6.31806 -4.72773,-0.0555 -13.29251,0.73822 -19.032863,1.76373 -8.201698,1.46527 -10.845543,2.7467 -12.344574,5.98322 -2.041405,4.40759 -2.883911,4.79663 -6.006569,2.77374 z"
       id="path3984" />
    <path
       style="fill:#5895c4"
       d="m 438.39096,808.57996 c -1.66482,-3.51191 -2.87857,-4.33381 -4.47498,-3.03046 -2.69921,2.20373 -4.99023,-2.28381 -2.44448,-4.78821 1.03631,-1.01947 -0.0182,-3.20386 -2.77799,-5.75439 l -4.44839,-4.11115 3.8049,-3.24628 c 2.09268,-1.78552 4.6867,-3.2434 5.76449,-3.2398 2.90308,0.01 14.2406,7.06884 15.91355,9.90832 0.79727,1.35315 2.20401,2.00159 3.1261,1.44092 0.92211,-0.56061 1.67657,-0.18182 1.67657,0.84174 0,2.35931 -2.83011,2.37561 -7.26282,0.0419 -4.12606,-2.17231 -4.27676,-1.32648 -0.90619,5.08563 2.67737,5.09326 1.08265,11.63647 -1.74075,7.14233 -1.06833,-1.7005 -1.73987,-1.41778 -2.68509,1.13037 -1.14819,3.09522 -1.46405,2.96857 -3.54492,-1.4209 z"
       id="path3982" />
    <path
       style="fill:#5895c4"
       d="m 339.79004,805.49091 c -1.22714,-1.93305 -3.8465,-3.52808 -5.82077,-3.54456 -5.08591,-0.0425 -20.15595,-9.21558 -19.27597,-11.73322 0.40329,-1.15387 1.80582,-1.69305 3.1167,-1.19818 1.31088,0.49488 2.89538,0.0848 3.52109,-0.91113 0.77383,-1.23175 2.40854,-1.24121 5.112,-0.0294 2.56237,1.1485 7.61685,1.21948 14.22696,0.19977 5.63894,-0.86993 10.22415,-1.10828 10.18933,-0.52972 -0.0348,0.57861 -1.1684,3.01593 -2.51908,5.41638 -1.61383,2.8681 -1.90054,5.38501 -0.83627,7.34131 3.77945,6.9472 -3.4873,11.64679 -7.71399,4.98877 z"
       id="path3980" />
    <path
       style="fill:#5895c4"
       d="m 47.102051,802.50384 c -4.330551,-0.66082 -4.575581,-1.23126 -4.073841,-9.48291 0.29364,-4.82885 0.91917,-9.393 1.39011,-10.14263 1.211029,-1.92768 -4.945992,-6.76355 -7.53178,-5.91565 -2.89904,0.95068 -2.724689,-5.00843 0.272171,-9.30237 4.26569,-6.11194 8.337269,-27.96008 6.429878,-34.50275 -2.275177,-7.80414 -2.244038,-7.95428 1.868973,-9.01239 2.04974,-0.52728 3.576099,-0.0528 3.580688,1.11304 0.0044,1.11767 2.817909,2.17358 6.252209,2.34656 3.434311,0.17291 6.244213,-0.42023 6.244213,-1.318 0,-0.89782 1.922478,-1.63238 4.272205,-1.63238 5.832634,0 7.9431,7.76092 3.441254,12.6546 -1.863647,2.02582 -2.959801,5.50244 -2.65023,8.40564 0.290337,2.72302 -0.252708,5.42554 -1.206787,6.00562 -0.954094,0.58007 -1.302063,2.68219 -0.773285,4.67138 0.708855,2.66669 -0.05123,3.87726 -2.893589,4.60846 l -3.855011,0.9917 3.45908,5.7674 c 3.119728,5.20166 3.196678,6.13598 0.784492,9.52386 -2.048191,2.87671 -2.191902,4.32855 -0.613659,6.19934 1.584839,1.8786 1.368958,3.48169 -0.934551,6.94019 -1.647491,2.47357 -2.535072,5.67755 -1.97237,7.12005 0.845188,2.16675 -4.21188,6.91114 -6.318432,5.92774 -0.310219,-0.14484 -2.637489,-0.57978 -5.171738,-0.96649 z"
       id="path3978" />
    <path
       style="fill:#5895c4"
       d="m 458.97562,791.39899 c -0.61878,-0.98493 -4.88645,-3.66211 -9.48374,-5.94934 -6.18521,-3.07728 -10.74899,-4.03894 -17.55084,-3.69825 -8.10498,0.40595 -9.41479,-0.0204 -11.0751,-3.60522 -1.63001,-3.51935 -1.35501,-4.16638 2.04672,-4.81561 3.6055,-0.68818 3.62988,-0.76978 0.29559,-0.98938 -6.22342,-0.40979 -12.12851,-16.05518 -6.05981,-16.05518 0.91046,0 1.65539,-1.08936 1.65539,-2.42078 0,-1.33142 1.19693,-3.39801 2.65985,-4.5924 1.4629,-1.1944 2.21933,-2.87281 1.68091,-3.7298 -0.83682,-1.33203 2.78784,-2.32501 6.65256,-1.82251 0.64264,0.0836 2.1478,-1.00897 3.34482,-2.42786 1.19705,-1.41888 4.48956,-2.57977 7.31671,-2.57977 2.82718,0 5.14032,-0.79083 5.14032,-1.75732 0,-0.96656 1.9573,-1.75733 4.34958,-1.75733 2.39227,0 6.54889,-0.82263 9.23697,-1.828 3.62011,-1.354 6.54519,-1.20264 11.28094,0.58362 3.51645,1.32641 8.95712,2.24396 12.09039,2.039 3.6373,-0.23792 6.06113,0.5614 6.70459,2.21094 1.69239,4.33868 -0.55603,5.60907 -6.61987,3.74041 -6.31775,-1.9469 -7.22351,-1.99298 -13.8201,-0.70318 -2.45624,0.48022 -6.07358,1.1737 -8.03857,1.54107 -1.96497,0.36738 -3.68091,1.7768 -3.8132,3.13196 -0.1323,1.35523 -0.33384,3.25482 -0.44788,4.22138 -0.11401,0.96655 -2.17197,1.86865 -4.57324,2.0047 -3.17255,0.17975 -4.54358,-0.78089 -5.01587,-3.51465 -0.60599,-3.50751 -0.81485,-3.43182 -3.08701,1.11829 -1.86416,3.73309 -1.94452,5.3648 -0.34188,6.9414 1.15234,1.13361 2.09515,3.48456 2.09515,5.22431 0,1.73968 1.20578,3.16314 2.67953,3.16314 1.47373,0 2.67951,0.83747 2.67951,1.86103 0,1.02356 -0.80387,1.37231 -1.78635,0.77496 -3.12405,-1.89942 -5.76394,0.91723 -3.4407,3.67108 1.67267,1.98273 1.4216,2.49426 -1.25302,2.55316 -2.48908,0.0548 -1.94522,0.84162 2.12573,3.07532 9.22308,5.06061 12.7193,8.1048 14.04336,12.22754 1.30652,4.0683 0.32416,5.33972 -1.67144,2.16327 z"
       id="path3976" />
    <path
       style="fill:#5895c4"
       d="m 355.80032,788.61572 c -1.31778,-1.29632 1.85129,-9.90259 4.16425,-11.30884 0.97046,-0.59008 0.12817,-5.51727 -2.00583,-11.73376 -2.81634,-8.2041 -4.65427,-10.9574 -7.83939,-11.74384 -2.48138,-0.61267 -4.61456,-2.80658 -5.28537,-5.43585 -0.72168,-2.82867 -2.37814,-4.40863 -4.62225,-4.40863 -1.92358,0 -4.75799,-1.89251 -6.29861,-4.20562 -1.9466,-2.92261 -5.15631,-4.55304 -10.52127,-5.34449 -6.6587,-0.9823 -9.59482,-3.03405 -21.35569,-14.92309 -7.49957,-7.5813 -13.64007,-14.86347 -13.64553,-16.18262 -0.005,-1.31909 -0.80191,-5.20276 -1.76984,-8.63031 -1.4054,-4.97675 -3.43243,-7.03125 -10.06479,-10.20117 l -8.30496,-3.96924 -6.79077,5.36853 c -7.44676,5.88715 -9.01316,6.48285 -8.34001,3.17188 0.24562,-1.2082 -1.06604,-2.20105 -2.91481,-2.20643 -1.84874,-0.005 -4.55932,-1.7846 -6.0235,-3.95391 -1.95285,-2.89338 -2.0734,-3.94428 -0.45244,-3.94428 1.61024,0 1.47331,-1.10553 -0.50472,-4.07538 -2.48997,-3.7384 -2.42973,-4.25024 0.72875,-6.19067 2.71382,-1.66724 3.05607,-2.82684 1.61577,-5.47437 -2.69017,-4.94488 -2.47605,-5.20379 5.318,-6.42987 6.44951,-1.01452 8.00271,-2.36273 7.35692,-6.3861 -0.45486,-2.83399 3.27695,-1.099 6.61472,3.07531 4.14099,5.1789 5.65723,5.52735 5.73498,1.318 0.0769,-4.16309 4.70362,-10.11396 5.66272,-7.28333 1.09778,3.23981 8.57123,3.83478 8.57123,0.68237 0,-1.44372 0.80387,-2.62494 1.78635,-2.62494 0.98248,0 1.78634,-1.27081 1.78634,-2.82403 0,-1.91602 0.95917,-2.46185 2.98328,-1.69776 1.64084,0.61939 3.55527,0.21576 4.2543,-0.89691 2.13703,-3.40161 13.02158,-3.78998 15.43878,-0.55084 1.17331,1.57227 4.70655,3.37647 7.85154,4.00922 4.95327,0.99658 5.80468,1.97961 6.36456,7.34845 0.58615,5.6206 0.10437,6.39532 -5.17203,8.31683 -9.77533,3.55994 -10.62619,4.51208 -8.6354,9.66309 1.20379,3.11474 1.19223,4.98638 -0.0354,5.73272 -1.08045,0.65692 -1.29651,3.36585 -0.53055,6.65216 0.71066,3.0492 1.20962,6.92792 1.10876,8.61933 -0.10083,1.6914 0.57056,3.07531 1.49201,3.07531 0.92141,0 1.67532,-0.79809 1.67532,-1.77349 0,-0.97541 2.83002,0.0131 6.28897,2.19665 4.85306,3.06366 6.91702,6.06207 9.0397,13.13251 3.73325,12.43493 13.66797,20.57531 23.00714,18.85174 6.34156,-1.17035 8.0264,0.36011 4.36341,3.96357 -1.42163,1.39856 1.15225,3.66607 9.37832,8.26208 16.4372,9.18372 24.40171,16.09979 21.66776,18.81549 -1.71741,1.706 -2.41986,1.53052 -3.34256,-0.83496 -0.64252,-1.64716 -3.61325,-4.23865 -6.60163,-5.75885 -5.20483,-2.64783 -5.5736,-2.58966 -8.76608,1.38294 -6.93594,8.63085 -7.17926,9.97454 -2.36804,13.07574 5.39377,3.47675 5.87137,8.85687 0.92337,10.40179 -1.965,0.61359 -3.57269,2.27625 -3.57269,3.69489 0,3.00165 -5.16999,11.24231 -7.0531,11.24231 -0.70575,0 -1.76777,-0.47669 -2.36002,-1.05933 z"
       id="path3974" />
    <path
       style="fill:#5895c4"
       d="m 264.20444,771.38269 c -2.98233,-2.14532 -3.20697,-3.25244 -1.54087,-7.59473 1.43943,-3.75146 1.38804,-6.95715 -0.19622,-12.23541 -2.12915,-7.09381 -2.10031,-7.17383 3.53753,-9.81866 5.37467,-2.52137 5.81424,-2.46174 8.0723,1.09521 1.31345,2.06897 2.66034,6.06226 2.99313,8.87396 0.76154,6.43421 -2.59387,19.07184 -4.72042,17.77893 -0.87626,-0.53277 -2.2819,0.24201 -3.12366,1.72174 -1.33576,2.34803 -1.9747,2.37079 -5.02179,0.17896 z"
       id="path3972" />
    <path
       style="fill:#5895c4"
       d="m 409.9118,759.42316 c -0.0218,-1.65741 -1.71627,-3.89612 -3.76541,-4.97498 -2.0491,-1.07886 -3.28317,-2.39685 -2.74237,-2.92883 0.54084,-0.53211 0.23606,-2.34101 -0.6773,-4.0199 -0.91337,-1.67889 -1.15473,-3.55017 -0.53641,-4.15845 1.83676,-1.80694 1.9585,-17.54718 0.16238,-20.99566 -2.12207,-4.07428 1.28772,-8.43915 5.41706,-6.93445 5.93563,2.1629 9.03106,7.43786 8.00717,13.64496 -0.70529,4.27539 0.11639,7.66021 2.95718,12.182 2.16358,3.44391 3.11853,6.2616 2.12213,6.2616 -0.9964,0 -2.28103,1.38391 -2.85473,3.07532 -0.5737,1.6914 -2.61963,5.0523 -4.54651,7.46856 -2.77979,3.48584 -3.51166,3.77088 -3.54318,1.37983 z"
       id="path3970" />
    <path
       style="fill:#5895c4"
       d="m 494.91031,745.92541 c -3.47257,-1.32019 -5.63388,-9.92321 -2.90915,-11.57977 0.82156,-0.49951 1.0773,-2.47491 0.56827,-4.38983 -1.16599,-4.38629 7.37286,-8.33289 11.22485,-5.18799 1.31119,1.07056 3.21964,1.43836 4.24097,0.81738 1.02136,-0.62097 2.7139,0.72107 3.76126,2.98237 1.04736,2.26129 4.4671,5.27136 7.59955,6.68902 l 5.69531,2.57764 -9.54938,0.53699 c -7.32574,0.41192 -10.44549,1.5039 -13.39758,4.6892 -2.72497,2.94031 -4.83649,3.77655 -7.2341,2.86499 z"
       id="path3968" />
    <path
       style="fill:#5895c4"
       d="m 419.79636,739.43823 c -1.52838,-1.50354 -2.7789,-4.6452 -2.7789,-6.98138 0,-4.64704 5.1177,-11.67133 7.46405,-10.24475 0.80722,0.49078 1.46768,0.14807 1.46768,-0.76154 0,-2.97961 13.7641,-2.04816 16.54501,1.11963 5.98233,6.81457 4.01062,14.38538 -3.74646,14.38538 -1.88614,0 -4.2811,1.00958 -5.32208,2.24353 -2.75766,3.26873 -10.41312,3.40307 -13.6293,0.23913 z"
       id="path3966" />
    <path
       style="fill:#5895c4"
       d="m 470.5462,732.01123 c -4.56854,-2.1767 -6.56576,-2.23572 -12.32949,-0.36444 -7.3725,2.39361 -11.25367,1.40692 -9.73905,-2.47595 0.51493,-1.32013 -0.69113,-3.89179 -2.68017,-5.71473 -3.29255,-3.01763 -3.65921,-5.54022 -2.18851,-15.05694 0.11203,-0.72492 1.40945,-1.31799 2.88321,-1.31799 1.47372,0 2.6795,-1.18622 2.6795,-2.63599 0,-1.44983 -0.7832,-2.63599 -1.74048,-2.63599 -0.95727,0 -3.00006,-2.39624 -4.53958,-5.32495 -2.4201,-4.60388 -2.45511,-5.66339 -0.25854,-7.82422 2.83462,-2.78857 4.98187,-1.78546 3.62488,1.69342 -1.00071,2.56531 6.54632,4.19019 23.45669,5.05024 8.15357,0.41467 11.85755,-0.22889 15.4802,-2.68964 7.85482,-5.33557 14.83523,-5.85944 22.07589,-1.65674 3.52747,2.04743 7.57343,3.72266 8.99103,3.72266 3.80707,0 3.13068,2.96234 -0.91394,4.00287 -1.95636,0.50329 -4.05228,3.09674 -4.76718,5.8988 -0.70169,2.75037 -2.34601,6.05347 -3.65402,7.34027 -2.66181,2.61853 -3.26233,6.34808 -0.77906,4.83832 2.31247,-1.40601 4.20932,4.54022 2.10779,6.6076 -1.16803,1.14905 -2.63159,1.03638 -4.30713,-0.3316 -3.44241,-2.81055 -11.94595,0.41675 -13.16314,4.99567 -1.57056,5.90826 -11.84638,7.87787 -20.2389,3.87933 z"
       id="path3964" />
    <path
       style="fill:#5895c4"
       d="m 267.37064,729.48694 c -0.1041,-1.20813 -0.68039,-4.71759 -1.28067,-7.79883 -0.89246,-4.58081 -0.38233,-5.97553 2.79821,-7.65002 3.97437,-2.09247 6.913,-0.138 6.98062,4.64276 0.10636,7.52032 -7.90374,17.70581 -8.49816,10.80609 z"
       id="path3962" />
    <path
       style="fill:#5895c4"
       d="m 417.01746,721.01416 c 0,-2.64288 -3.94904,-6.22662 -8.38892,-7.61292 -2.76025,-0.86181 -4.69049,-0.005 -7.27853,3.232 -3.30042,4.12762 -3.69193,4.21448 -6.22046,1.38037 -3.6341,-4.07342 -5.6677,-10.93243 -3.24131,-10.93243 1.04871,0 1.90674,-1.23291 1.90674,-2.73975 0,-1.50677 0.80954,-2.24744 1.79895,-1.64587 0.98944,0.60156 2.28122,-0.14258 2.87064,-1.65363 0.58942,-1.51105 2.19144,-2.74737 3.56009,-2.74737 2.99167,0 3.28598,-2.82227 0.47265,-4.53278 -1.36892,-0.83227 -1.04898,-1.75775 0.9971,-2.88422 2.75144,-1.5147 2.68464,-1.93866 -0.76965,-4.88586 -3.22613,-2.75256 -3.45428,-3.74414 -1.55115,-6.74206 1.79648,-2.82984 1.77448,-4.05628 -0.11288,-6.29346 -1.5661,-1.85639 -1.67865,-2.77869 -0.33908,-2.77869 1.10278,0 2.00506,-0.79077 2.00506,-1.75732 0,-3.24024 -3.89602,-1.7992 -4.85128,1.79437 -0.7331,2.75769 -1.48438,3.1106 -3.36087,1.57855 -2.22599,-1.81738 -10.1919,-2.80371 -31.08747,-3.8493 -7.04022,-0.3523 -8.10711,0.0713 -8.59066,3.41113 -0.33628,2.32276 2.64022,8.3064 7.61459,15.30756 l 8.16669,11.49408 -5.79489,-0.3703 c -6.03132,-0.38544 -16.99115,-9.91364 -13.70285,-11.91284 0.92041,-0.55964 0.0468,-2.4657 -1.94141,-4.23578 -1.98819,-1.77002 -3.61493,-4.64649 -3.61493,-6.39209 0,-1.74561 -1.56567,-4.60877 -3.47925,-6.36255 -2.21438,-2.02954 -2.94497,-4.03925 -2.00964,-5.52808 1.02814,-1.63653 1.83667,-1.755 2.6915,-0.39429 2.01474,3.20685 7.83419,2.19745 9.04962,-1.5697 0.62366,-1.93304 1.97739,-3.51465 3.00824,-3.51465 1.03085,0 1.45114,-1.59191 0.9339,-3.53765 -1.01773,-3.82868 2.91855,-6.88038 7.858,-6.09211 1.57761,0.25177 6.01196,2.50428 9.85413,5.00556 8.09625,5.27081 18.53851,7.94079 18.53851,4.74017 0,-1.14441 0.82516,-1.57898 1.83371,-0.96582 1.00854,0.61316 1.71716,2.04376 1.57471,3.17902 -0.52915,4.21655 0.22006,6.45739 2.15896,6.45739 1.09708,0 1.59699,-1.38385 1.11093,-3.07531 -0.48605,-1.69141 -1.18271,-4.15644 -1.54809,-5.47785 -0.36539,-1.32135 0.54141,-2.69104 2.01516,-3.04376 11.53952,-2.7616 12.23887,-2.72284 15.90229,0.88104 2.06112,2.02765 3.74753,4.8476 3.74753,6.26648 0,1.41895 1.80865,3.59363 4.01925,4.83264 2.2106,1.23902 4.01929,3.74817 4.01929,5.57587 0,1.8277 1.6077,4.20007 3.57269,5.27191 1.96497,1.0719 4.23676,2.73969 5.04843,3.70618 0.95609,1.13849 1.79483,0.98376 2.38181,-0.43933 0.49832,-1.20813 1.47183,-2.19666 2.16339,-2.19666 2.00397,0 2.03097,7.53205 0.0355,9.8974 -1.91263,2.26709 1.89844,11.60334 5.67334,13.89844 1.21039,0.7359 0.49161,2.16486 -1.92734,3.83167 -2.43628,1.67865 -3.53366,3.87658 -2.97842,5.96533 1.0845,4.07983 -0.74149,5.28107 -8.18759,5.38635 -3.17997,0.0449 -7.56217,1.17792 -9.73822,2.51776 -4.75712,2.92902 -5.86847,3.03375 -5.86847,0.55316 z"
       id="path3960" />
    <path
       style="fill:#5895c4"
       d="m 178.04784,715.03522 c -2.11478,-3.45929 -11.35849,-5.64832 -21.69472,-5.13745 -9.96391,0.49243 -20.85959,-3.21009 -18.85175,-6.40607 0.58136,-0.92536 -0.13154,-1.6825 -1.58423,-1.6825 -2.29158,0 -2.32075,-0.87237 -0.22036,-6.5899 1.33149,-3.62451 3.12953,-12.52094 3.99563,-19.76984 1.40625,-11.76959 0.90833,-15.91565 1.62328,-19.43225 0.85982,-4.22931 0.26729,-5.39673 -3.62462,-7.14117 -5.19434,-2.32825 -10.74836,-9.57276 -9.2128,-12.01697 0.54852,-0.87311 -0.71101,-2.76453 -2.79893,-4.20325 -2.08794,-1.43866 -3.25972,-3.46972 -2.60399,-4.51349 0.70902,-1.12854 -0.3274,-1.89776 -2.55701,-1.89776 -2.0621,0 -6.96027,-1.61151 -10.88477,-3.58112 -3.92452,-1.9696 -7.94399,-3.08954 -8.93216,-2.48871 -1.12208,0.68219 -1.378008,-0.54864 -0.68164,-3.27813 0.81055,-3.17707 0.22446,-4.86078 -2.146464,-6.16608 -4.293648,-2.36377 -2.11393,-4.27075 5.150344,-4.50586 3.21705,-0.10406 6.84394,-1.37543 8.05977,-2.82526 1.92505,-2.29547 2.64329,-2.09259 5.56052,1.57074 1.99671,2.50745 4.21836,3.67872 5.49981,2.8996 1.18246,-0.71893 4.77047,-1.30713 7.97338,-1.30713 l 5.82344,0 -1.23616,-7.29291 c -0.67989,-4.01104 -1.86791,-8.76873 -2.64008,-10.57257 -1.24588,-2.91058 -0.9713,-3.052 2.43965,-1.25616 2.11396,1.11297 3.84355,2.68548 3.84355,3.49444 0,1.89881 13.17391,3.98871 16.71553,2.6518 1.48978,-0.56244 2.26917,-2.14929 1.73195,-3.52649 -0.66278,-1.69916 1.6147,-3.63159 7.08605,-6.01251 7.97621,-3.47089 11.97973,-9.36695 11.97973,-17.64276 0,-1.82056 2.12285,-3.80854 5.19037,-4.86048 4.51328,-1.54779 5.31255,-1.32037 6.12686,1.74298 0.70107,2.63733 1.86611,3.23267 4.63454,2.36829 2.48872,-0.77704 3.69803,-0.38165 3.69803,1.20923 0,3.13122 5.85496,7.96136 8.57101,7.07074 1.1809,-0.38727 2.24756,0.15265 2.37036,1.19971 0.12282,1.04705 0.34317,2.89227 0.48967,4.1004 0.14652,1.20813 1.74407,2.07202 3.5501,1.91968 1.80603,-0.15235 5.60489,1.75756 8.44191,4.24432 2.83704,2.48669 7.17758,4.73309 9.64568,4.99194 2.46809,0.25885 8.84922,2.50061 14.18028,4.98157 5.33105,2.48108 10.54646,4.51099 11.58977,4.51099 2.47515,0 2.40625,2.80957 -0.18576,7.57409 -1.14554,2.10566 -3.00673,7.39148 -4.13602,11.74634 -1.21442,4.68317 -3.10027,7.95056 -4.61604,7.99781 -1.40954,0.0439 -2.39373,0.93829 -2.18711,1.98742 0.20664,1.04914 -1.20012,3.31043 -3.1261,5.02515 -1.92598,1.71466 -3.50178,4.09656 -3.50178,5.29315 0,1.19659 -1.25675,2.65002 -2.79274,3.22986 -1.53601,0.57983 -2.27066,1.88525 -1.63255,2.901 0.63809,1.01568 0.0862,3.18225 -1.22655,4.81463 -2.03404,2.52948 -1.61685,2.48377 2.82348,-0.30938 5.04303,-3.17224 5.2869,-3.17432 7.59868,-0.0642 1.5129,2.0354 1.76471,3.8269 0.68694,4.88721 -1.07778,1.06024 -0.74896,3.4859 0.89696,6.617 2.40766,4.58026 2.32688,5.08618 -1.10006,6.89044 -2.94204,1.54895 -3.26867,2.45673 -1.59697,4.43823 1.15584,1.37006 1.65459,3.63685 1.10833,5.03724 -1.43277,3.67309 5.43582,11.64184 8.90559,10.33203 2.38753,-0.90131 2.50516,-0.48346 0.76462,2.71594 -1.13137,2.07959 -2.80487,3.78113 -3.71894,3.78113 -0.91403,0 -4.19871,2.43951 -7.29927,5.42108 -3.31924,3.19195 -6.83371,5.06055 -8.54672,4.54407 -1.60016,-0.48237 -5.52189,-1.73572 -8.71499,-2.78516 -15.2249,-5.00378 -15.70949,-5.02625 -22.93007,-1.06055 -4.59455,2.52344 -7.19617,5.29541 -7.58907,8.086 -0.32883,2.33551 -1.23254,4.89813 -2.00832,5.69483 -2.32101,2.3836 -10.78604,2.63031 -12.17707,0.35498 z"
       id="path3958" />
    <path
       style="fill:#5895c4"
       d="m 382.6091,709.43646 c -3.67267,-2.57068 -6.67758,-6.04462 -6.67758,-7.71991 0,-1.67529 -1.03055,-3.435 -2.2901,-3.91046 -3.50745,-1.3241 -17.35971,-22.01215 -17.35971,-25.92645 0,-4.27698 1.55584,-4.40528 4.65872,-0.38416 2.08591,2.70319 2.37991,2.73242 2.42987,0.24164 0.0416,-2.07526 1.37152,-2.65216 4.96924,-2.15546 2.70187,0.37299 8.84042,1.04773 13.64129,1.49945 4.80085,0.45173 9.81473,1.70783 11.14191,2.79139 1.32721,1.08355 3.62909,1.5111 5.11536,0.95001 1.65616,-0.62518 2.70224,-0.021 2.70224,1.56073 0,1.41943 -0.80384,2.58081 -1.78632,2.58081 -0.98251,0 -1.78634,1.5816 -1.78634,3.51465 0,1.93304 0.77862,3.51465 1.73028,3.51465 0.95163,0 1.26364,1.19628 0.6933,2.65832 -0.57031,1.4621 -0.0447,3.83453 1.16797,5.27197 1.832,2.17157 1.57312,2.61359 -1.53043,2.61359 -2.75009,0 -3.43448,0.77136 -2.59469,2.92426 0.71283,1.82739 0.43008,2.49224 -0.75382,1.77239 -2.55032,-1.55053 -7.87832,6.71735 -6.53992,10.1485 1.42713,3.65857 0.84034,3.49384 -6.93127,-1.94592 z"
       id="path3956" />
    <path
       style="fill:#5895c4"
       d="m 457.71329,692.74823 c -1.25916,-0.78601 -4.14551,-1.44122 -6.4141,-1.45599 -2.36477,-0.0154 -3.64047,-0.79767 -2.98983,-1.83338 0.62417,-0.99347 -0.73514,-3.33954 -3.02069,-5.21344 -2.37415,-1.94659 -3.15314,-3.43213 -1.81717,-3.46557 1.2861,-0.0322 1.87503,-0.79596 1.30871,-1.69733 -0.56628,-0.90143 -3.39938,-1.57269 -6.29574,-1.49164 -6.13248,0.17151 -11.32386,-3.40472 -9.97226,-6.86975 0.55371,-1.41949 -0.87946,-3.22308 -3.4914,-4.3938 -2.43686,-1.09228 -4.43066,-3.4013 -4.43066,-5.13116 0,-1.72986 -1.40674,-4.02124 -3.1261,-5.09186 -1.71936,-1.07068 -2.32224,-2.30853 -1.33975,-2.75073 8.05316,-3.625 10.62997,-5.73017 11.67239,-9.53583 1.27908,-4.66968 12.44327,-22.83533 12.44327,-20.24689 0,0.841 1.84961,-0.18036 4.11023,-2.26959 3.3139,-3.06262 5.13092,-3.51221 9.37832,-2.32031 2.89743,0.81311 7.23505,1.17962 9.63916,0.81457 2.49152,-0.37842 4.9704,0.38971 5.76487,1.78626 1.18524,2.08349 2.66949,2.0498 9.91967,-0.22492 4.68924,-1.47125 9.79499,-3.74121 11.34607,-5.04431 4.72858,-3.97247 6.26029,-2.84552 14.09641,10.37134 6.28329,10.59771 7.65265,14.58392 8.14184,23.70099 0.32349,6.02819 1.10169,12.55224 1.72944,14.49786 1.25964,3.9043 7.81903,4.815 11.14123,1.54675 2.21301,-2.177 7.62274,-0.89245 7.62274,1.81 0,2.85791 -6.01416,7.91242 -6.76794,5.68799 -0.37134,-1.09595 -1.28479,-1.99268 -2.02991,-1.99268 -1.64709,0 -5.49292,12.13886 -5.49292,17.33771 0,2.57855 -1.11615,3.75012 -3.57269,3.75012 -1.96497,0 -3.57269,-0.72949 -3.57269,-1.62109 0,-2.57697 -12.24295,-5.85376 -17.25123,-4.61719 -2.50637,0.61884 -6.62893,2.46063 -9.16125,4.0929 -4.90549,3.16198 -23.48041,4.4226 -27.56802,1.87097 z"
       id="path3954" />
    <path
       style="fill:#5895c4"
       d="m 583.90997,681.33765 c -1.05444,-0.38611 -1.58441,-2.93207 -1.17779,-5.65766 0.60748,-4.07153 -0.30731,-5.60748 -5.1275,-8.60986 l -5.86689,-3.6543 6.65973,-3.12414 c 9.10163,-4.26978 8.03113,-8.28266 -2.40893,-9.02985 -4.4137,-0.31592 -9.20813,-0.97638 -10.65436,-1.46777 -2.30951,-0.78473 -2.31055,-1.08734 -0.009,-2.48688 2.22449,-1.35242 2.10315,-1.9657 -0.80212,-4.0556 -1.88269,-1.35425 -4.6922,-2.22388 -6.24353,-1.93256 -10.72162,2.01349 -12.64545,2.83057 -12.64545,5.37049 0,5.44781 -15.8208,17.5003 -25.39008,19.34246 -3.57641,0.68848 -2.89868,-1.53552 3.95392,-12.97479 4.24304,-7.08313 7.14539,-9.4494 7.14539,-5.82574 0,0.91107 1.71643,1.33123 3.81439,0.93377 4.43951,-0.84106 6.7608,-2.59015 3.43756,-2.59015 -1.25134,0 -1.83502,-1.12841 -1.29706,-2.5075 0.53797,-1.37909 -0.17987,-3.45294 -1.59521,-4.60846 -1.41535,-1.15558 -2.57337,-3.98114 -2.57337,-6.27912 0,-2.66748 -1.03881,-4.1781 -2.87317,-4.1781 -2.10742,0 -2.5979,-1.07898 -1.84033,-4.04822 0.67792,-2.65734 -0.0318,-4.92157 -2.06567,-6.58996 -9.53955,-7.82532 -29.58368,-10.47931 -34.45435,-4.56201 -4.0718,4.94671 -20.77826,10.25659 -22.0459,7.00689 -0.52584,-1.34808 -3.06906,-2.21026 -5.8897,-1.9967 -8.1406,0.61639 -19.63208,-2.15216 -22.6785,-5.46368 -3.76614,-4.09394 -0.63303,-14.63025 3.84753,-12.93885 2.28748,0.86353 2.58167,0.25373 1.5351,-3.18213 -0.71207,-2.3377 -1.44415,-5.09863 -1.62689,-6.13531 -0.40805,-2.31525 12.36416,-16.5669 14.84707,-16.5669 0.98502,0 1.91342,-0.98846 2.06305,-2.19665 0.14966,-1.20813 0.39621,-3.38281 0.54791,-4.83258 0.15168,-1.44977 -1.02801,-4.61298 -2.62149,-7.0293 -2.88977,-4.38184 -2.87893,-10.54388 0.0186,-10.54388 0.84027,0 2.80292,-1.25446 4.36142,-2.7876 4.65573,-4.58008 33.7428,-3.38349 36.97568,1.52112 0.63125,0.95764 4.7846,1.83209 9.22967,1.94317 4.44504,0.11109 8.67777,0.78821 9.40598,1.5047 0.72827,0.71649 2.35144,0.46393 3.60717,-0.56128 1.61463,-1.31829 3.38233,-1.28527 6.03748,0.11261 2.06488,1.0871 5.23651,1.51386 7.04797,0.94825 2.0492,-0.63984 3.68994,-0.0126 4.34235,1.65997 1.87335,4.80249 4.73352,2.84045 4.73352,-3.24713 0,-7.64099 3.50208,-10.3559 13.79987,-10.698 4.56744,-0.15173 8.5946,-1.13208 8.94915,-2.17853 0.35462,-1.04651 2.12317,-1.5224 3.93018,-1.05749 1.80695,0.46484 3.75891,0.0915 4.33759,-0.82959 2.03112,-3.23304 10.18115,-10e-4 12.86309,5.10095 1.46125,2.77978 1.97156,5.0542 1.13398,5.0542 -0.83759,0 -1.16889,2.37237 -0.73627,5.27197 0.74133,4.9693 2.698,6.17664 8.78577,5.42127 2.5003,-0.31025 8.67639,8.23529 7.08404,9.80181 -0.58978,0.5802 -0.2478,2.5705 0.75995,4.42292 1.24585,2.28998 2.94281,3.0213 5.3017,2.28479 2.0556,-0.64185 4.61389,0.0427 6.27801,1.67975 2.50934,2.46856 3.21735,2.48138 6.64423,0.12011 5.46435,-3.76519 7.2138,-3.33484 10.8136,2.6601 1.75134,2.91662 3.91955,4.85589 4.81817,4.30951 2.05286,-1.24811 18.22907,4.31976 23.1424,7.9657 3.53784,2.62518 3.5567,2.86077 0.49573,6.19464 -3.20038,3.48572 -4.13178,8.98895 -2.07355,12.25219 1.13086,1.79285 0.768,6.36731 -0.82996,10.46393 -0.55487,1.42243 -2.68017,1.94489 -5.64428,1.38745 -3.71875,-0.69934 -5.89423,0.33374 -9.98792,4.74292 -2.87854,3.10035 -4.8363,6.26947 -4.35071,7.04242 0.48566,0.77301 -2.74048,2.40351 -7.16913,3.62329 -4.42871,1.21979 -8.48083,2.90015 -9.00476,3.73407 -0.52386,0.83399 -2.13672,1.5163 -3.58404,1.5163 -1.44727,0 -5.62006,1.31238 -9.27289,2.91644 -3.65277,1.60407 -7.17987,2.98798 -7.83807,3.07532 -2.89527,0.38434 -10.41455,8.31482 -10.41455,10.98401 0,1.61731 0.49133,2.45715 1.09179,1.86639 0.60053,-0.59076 3.10449,1.27887 5.56433,4.15473 3.31336,3.87371 5.46088,4.95092 8.2865,4.15643 2.09766,-0.58984 5.22071,-1.45837 6.94007,-1.93005 1.94818,-0.53449 3.12609,0.10937 3.12609,1.70874 0,3.32989 -4.50946,4.97644 -9.95019,3.63305 -3.01837,-0.74524 -4.63672,-0.21893 -5.4082,1.75891 -0.60553,1.55231 -2.32679,2.82239 -3.82508,2.82239 -1.49823,0 -5.23059,1.48279 -8.294,3.29511 -3.06342,1.81237 -6.43262,2.97924 -7.48706,2.59308 z"
       id="path3952" />
    <path
       style="fill:#5895c4"
       d="m 331.08917,658.31561 c -4.59152,-8.09729 -3.45163,-11.76953 3.75638,-12.10119 6.44482,-0.29651 18.30151,-2.78632 23.4884,-4.93231 5.4787,-2.26673 5.37519,2.53997 -0.12121,5.62731 -3.91394,2.19849 -5.15763,3.95862 -4.42142,6.25751 0.71466,2.23157 -0.0669,3.47937 -2.58487,4.12714 -2.177,0.56006 -3.22803,1.90582 -2.64856,3.39135 1.13602,2.91236 -0.21387,3.10981 -4.78961,0.70075 -2.23727,-1.17792 -3.71387,-1.17792 -4.45386,0 -1.98041,3.15228 -5.42593,1.86609 -8.22525,-3.07056 z"
       id="path3950" />
    <path
       style="fill:#5895c4"
       d="m 515.00641,658.41931 c -0.14307,-1.74847 -0.427,-7.40997 -0.63098,-12.58111 -0.20398,-5.17115 -1.09174,-9.9159 -1.97284,-10.54389 -1.66223,-1.18481 -2.92807,-3.1001 -10.33475,-15.63757 l -4.41089,-7.46643 4.3736,-1.0799 c 4.5715,-1.12872 15.02231,2.17463 15.02231,4.74829 0,0.81891 1.20575,1.03382 2.6795,0.47748 1.47369,-0.55639 2.6795,-0.13617 2.6795,0.93378 0,1.06995 1.20581,1.94531 2.67951,1.94531 3.16015,0 3.46698,2.03711 0.71454,4.74475 -1.42908,1.40589 -0.98999,2.89222 1.61004,5.44995 1.96619,1.93427 4.11042,5.17652 4.76483,7.20502 0.65448,2.02844 1.91437,3.68811 2.79981,3.68811 0.88544,0 1.14941,1.18054 0.58655,2.62348 -0.67957,1.74212 -2.40991,2.28112 -5.15064,1.60443 -3.54089,-0.87427 -4.62774,0.094 -7.6499,6.815 -3.95953,8.80578 -7.3645,11.90936 -7.76019,7.0733 z"
       id="path3948" />
    <path
       style="fill:#5895c4"
       d="m 378.13632,654.1629 c -10.92962,-5.32214 -15.05862,-11.08484 -13.58887,-18.96551 0.64798,-3.47424 1.87177,-6.58209 2.71955,-6.90625 0.84778,-0.32422 1.08703,-1.31268 0.53164,-2.19666 -0.55532,-0.88397 0.15754,-1.60724 1.58411,-1.60724 1.42661,0 3.09854,-1.29382 3.71536,-2.87518 1.02143,-2.61853 1.39878,-2.62836 4.22696,-0.11047 3.85382,3.43097 18.25626,2.13794 18.25626,-1.63904 0,-1.39331 1.87808,-2.4046 4.46585,-2.4046 2.45624,0 4.46588,-0.71674 4.46588,-1.59278 0,-0.87603 1.51367,-1.20336 3.36374,-0.72747 2.06866,0.53222 4.32043,-0.47834 5.84869,-2.62476 1.72306,-2.42004 4.52555,-3.49011 9.14066,-3.49011 3.66067,0 6.65573,0.71173 6.65573,1.5816 0,0.86988 1.88666,1.58161 4.19254,1.58161 2.3059,0 6.08441,1.61413 8.39672,3.58697 4.19443,3.57874 4.19541,3.5893 0.42276,4.55982 -3.94723,1.01544 -16.58471,19.36846 -16.58471,24.08538 0,3.67493 -2.19733,4.75806 -13.05188,6.43396 -14.36267,2.21747 -19.84766,3.57575 -21.69254,5.37189 -2.47229,2.40698 -4.57312,2.07562 -13.06845,-2.06116 z"
       id="path3946" />
    <path
       style="fill:#5895c4"
       d="m 243.55203,650.396 c -1.54132,-3.66059 -3.06936,-4.85193 -5.44076,-4.24189 -4.02735,1.03608 -6.1258,-1.56835 -2.39765,-2.97576 1.4681,-0.5542 2.66928,-2.07068 2.66928,-3.37 0,-1.29925 2.27661,-4.50806 5.05916,-7.13055 4.87106,-4.59095 8.87225,-5.7721 24.49324,-7.23047 6.9968,-0.65314 7.23578,-0.49988 7.62967,4.8941 0.4303,5.89319 4.9443,10.61926 8.76508,9.17694 3.29623,-1.24432 2.81625,0.26129 -1.40802,4.41693 -2.96619,2.91797 -4.20414,3.2143 -6.29541,1.5069 -1.43174,-1.16894 -2.7847,-1.81494 -3.00656,-1.43555 -0.22187,0.37934 -1.26471,2.22425 -2.31739,4.0998 -2.74585,4.89215 -6.20257,5.4627 -7.33298,1.21038 -0.78982,-2.97131 -1.60586,-3.32428 -4.34783,-1.88061 -1.85654,0.97741 -3.37552,2.84576 -3.37552,4.15179 0,1.30609 -2.374,2.71747 -5.27553,3.13642 -4.46976,0.64538 -5.60291,-0.0158 -7.41878,-4.32843 z"
       id="path3944" />
    <path
       style="fill:#5895c4"
       d="m 324.1275,643.21588 c -7.298,-1.54382 -10.28113,-3.09582 -11.59881,-6.03436 -1.13752,-2.53674 -2.73969,-3.57428 -4.46589,-2.89215 -1.48056,0.58508 -4.48379,1.27618 -6.67385,1.53576 -2.19004,0.25959 -5.11933,1.40064 -6.50953,2.53565 -1.96209,1.60187 -3.11529,1.48553 -5.15399,-0.52002 -1.69394,-1.66644 -3.24054,-1.97943 -4.35641,-0.88171 -2.82734,2.78137 -7.68653,-0.2226 -7.68653,-4.7519 0,-4.51623 1.1807,-5.08423 5.27375,-2.53698 1.42682,0.88794 3.43646,1.08563 4.46585,0.43933 1.02942,-0.64636 3.88128,-1.29944 6.33752,-1.45136 2.45624,-0.15191 7.99106,-1.27588 12.29965,-2.49768 5.90134,-1.67352 8.63507,-1.72925 11.08188,-0.22601 4.28586,2.63306 5.69293,0.0571 3.32105,-6.08014 -1.58658,-4.10516 -1.36502,-5.30884 1.32696,-7.21008 1.77735,-1.25525 4.66425,-3.46759 6.41535,-4.91626 2.3089,-1.91022 4.09253,-2.15564 6.49044,-0.89319 2.57172,1.35394 4.34653,0.79278 7.98557,-2.52496 4.42221,-4.0318 5.05814,-4.13422 11.59006,-1.86707 3.80108,1.31934 8.36889,2.27197 10.15069,2.11707 2.31842,-0.2016 3.67362,1.46716 4.76609,5.86889 2.52578,10.17664 2.42355,11.13843 -1.29438,12.17951 -1.96499,0.55017 -3.65307,1.98889 -3.75134,3.19702 -0.0983,1.20813 -0.29919,4.14581 -0.44659,6.52813 -0.36924,5.96888 -5.81055,8.58307 -25.27677,12.14399 -2.45624,0.44934 -8.88708,-0.11835 -14.29077,-1.26148 z"
       id="path3942" />
    <path
       style="fill:#5895c4"
       d="m 280.25058,626.14624 c -2.88617,-1.87701 -6.25241,-3.04303 -7.48053,-2.59106 -1.22812,0.45196 -2.23294,0.13458 -2.23294,-0.70533 0,-1.70782 -7.17575,-1.35321 -14.93257,0.73792 -5.0418,1.35913 -5.09084,1.30017 -3.80129,-4.57306 0.71854,-3.27252 2.77574,-8.80633 4.57163,-12.29736 l 3.26516,-6.34741 -11.07515,-4.28522 c -9.52537,-3.68561 -11.07518,-4.90985 -11.07518,-8.74841 0,-2.45472 -0.98568,-5.6363 -2.19043,-7.07019 -1.643,-1.95557 -1.68016,-3.10914 -0.14857,-4.61579 1.5316,-1.50671 1.27275,-3.68664 -1.03577,-8.72284 -2.3282,-5.0791 -2.64679,-7.82898 -1.3083,-11.29223 0.97314,-2.51795 1.35353,-6.1424 0.8453,-8.05432 -0.68945,-2.59363 0.16962,-3.74622 3.38355,-4.53974 5.47732,-1.35242 9.78212,-9.55804 5.80241,-11.06036 -3.38968,-1.2796 -3.4803,-4.14606 -0.13109,-4.14606 3.18781,0 5.26816,-8.8576 3.71463,-15.81586 -1.13676,-5.09149 -0.95817,-5.27194 5.21709,-5.27194 3.5168,0 6.19319,0.59311 5.94759,1.31799 -0.51065,1.50696 1.04239,2.19666 4.94647,2.19666 1.98166,0 2.41968,-1.15186 1.62402,-4.27054 -0.96704,-3.79046 -0.61944,-4.15127 3.09204,-3.20968 2.29993,0.58346 4.98551,2.02996 5.96799,3.21444 0.98248,1.18445 3.79599,2.66657 6.2522,3.29358 4.07562,1.04041 4.16131,0.95423 0.98065,-0.98624 -4.47592,-2.73065 -12.72751,-12.38763 -12.14533,-14.21386 0.24564,-0.77051 -0.55822,-1.42493 -1.78631,-1.45432 -1.24478,-0.0298 -0.85501,-0.84311 0.88074,-1.8378 2.91482,-1.67044 2.92453,-2.06833 0.15188,-6.2312 l -2.96182,-4.44684 6.99353,1.22583 c 8.57294,1.50269 11.55978,3.82398 7.87173,6.11777 -2.39904,1.49207 -1.26053,2.46411 2.24787,1.91913 0.73687,-0.11444 1.33975,0.4483 1.33975,1.25055 0,0.80224 2.81351,1.36682 6.25223,1.25458 6.32004,-0.2063 8.40835,1.85507 3.68545,3.63797 -1.41168,0.53292 -2.20602,1.89199 -1.76523,3.02017 0.89603,2.29315 9.69101,3.34961 9.69101,1.16406 0,-1.54538 13.35358,-8.77811 16.20682,-8.77811 0.99332,0 3.50186,1.55426 5.57456,3.45386 2.07269,1.89963 4.48587,3.01776 5.36261,2.48471 5.54336,-3.37033 11.64969,12.88797 7.67813,20.4433 -2.26691,4.3125 -2.20087,5.12091 0.62378,7.63562 1.73748,1.54688 4.07608,6.58533 5.19683,11.19659 4.42447,18.20386 4.45273,19.37696 0.55961,23.20679 -2.029,1.99603 -5.01859,3.62915 -6.64353,3.62915 -1.62494,0 -8.12353,2.84375 -14.44131,6.31946 -10.56571,5.81262 -11.39405,6.69348 -10.32877,10.98321 0.63699,2.56513 5.3269,8.87159 10.42206,14.01441 l 9.26391,9.35058 -6.79406,5.66504 c -6.21607,5.18311 -6.63397,6.07923 -4.91245,10.53363 2.51056,6.49598 2.42331,6.75971 -1.44925,4.3805 -2.55203,-1.56787 -5.16253,-1.52692 -11.16467,0.17517 -4.30859,1.2218 -9.84341,2.34576 -12.29965,2.49768 -2.45624,0.15192 -5.31986,0.81219 -6.36365,1.46722 -1.04376,0.65509 -4.25918,-0.34472 -7.14538,-2.2218 z"
       id="path3940" />
    <path
       style="fill:#5895c4"
       d="m 375.38241,618.23529 c -6.46337,-5.95587 -6.17297,-13.6543 0.54911,-14.55676 5.0177,-0.67365 10.71808,-5.02271 10.71808,-8.17731 0,-1.14484 2.00964,-2.9823 4.46585,-4.08325 3.3222,-1.48914 4.46588,-1.49158 4.46588,-0.01 0,1.15644 1.35892,0.78217 3.23981,-0.89233 2.49914,-2.22498 3.7243,-2.40772 5.359,-0.79956 1.16559,1.1466 2.11927,3.11279 2.11927,4.36926 0,3.00012 3.60254,2.81513 7.93338,-0.40735 4.56106,-3.39374 13.68472,-3.27582 21.25311,0.2746 l 6.08521,2.85467 -2.8985,6.79273 c -2.76892,6.48901 -6.03434,8.60986 -8.12717,5.27862 -0.53555,-0.85241 -4.19901,-1.59362 -8.14111,-1.64715 -5.43912,-0.0738 -7.63572,0.76355 -9.10959,3.47278 -1.26538,2.32592 -3.1333,3.26361 -5.36017,2.69073 -1.87988,-0.48364 -3.86813,-0.16272 -4.41834,0.71308 -0.5502,0.87579 -2.96258,1.59234 -5.36084,1.59234 -2.68502,0 -4.36041,1.01276 -4.36041,2.63593 0,1.44983 -1.40674,2.64679 -3.1261,2.65997 -1.71936,0.0132 -4.73382,0.43707 -6.69882,0.94196 -2.31488,0.59478 -5.33823,-0.70899 -8.58765,-3.70325 z"
       id="path3938" />
    <path
       style="fill:#5895c4"
       d="m 325.10474,596.13306 c -6.35743,-6.15198 -12.01996,-13.16242 -12.58338,-15.57874 -0.8999,-3.85919 0.11752,-5.01996 8.36914,-9.54785 12.02677,-6.59937 28.24582,-10.61206 28.24582,-6.98816 0,1.36261 0.60291,2.34772 1.33978,2.18921 2.70728,-0.58252 11.11408,2.46167 10.31418,3.73492 -0.45416,0.7229 1.03845,3.0373 3.31693,5.14301 3.67077,3.39245 4.40118,3.52228 6.41156,1.13922 2.00934,-2.38178 3.31704,-2.13873 11.43277,2.12469 13.09903,6.88135 14.49768,9.23768 7.37756,12.42908 -2.45621,1.10095 -4.46585,3.07123 -4.46585,4.37842 0,3.0011 -7.93665,7.29767 -10.54776,5.71014 -1.07614,-0.65429 -1.95667,-0.36358 -1.95667,0.646 0,2.24176 -12.99896,1.23138 -20.48986,-1.59259 -4.15906,-1.56793 -5.70356,-1.50305 -7.14539,0.30005 -6.31677,7.89947 -7.48267,7.65655 -19.61883,-4.0874 z"
       id="path3936" />
    <path
       style="fill:#5895c4"
       d="m 437.56045,593.47369 c -8.32717,-4.74896 -18.05374,-5.30023 -23.789,-1.34839 -3.81768,2.63056 -4.24456,2.52979 -7.7254,-1.82342 -2.83752,-3.54877 -4.23541,-4.15802 -6.08145,-2.65088 -1.84003,1.50232 -2.93915,1.07343 -4.72992,-1.8454 -2.89502,-4.71869 -27.45578,-17.39746 -25.88098,-13.36023 1.65457,4.24158 -1.5257,4.8927 -5.07156,1.03821 -2.34321,-2.54712 -2.54975,-3.47314 -0.77463,-3.47314 3.82519,0 -0.55152,-3.46796 -5.57059,-4.41394 -2.38409,-0.44934 -5.2272,-2.01239 -6.31799,-3.47351 -1.09082,-1.46106 -2.73871,-2.6565 -3.66202,-2.6565 -0.92331,0 -1.67874,-2.63495 -1.67874,-5.85547 0,-9.33154 -4.55527,-25.47015 -8.07321,-28.60211 -2.8992,-2.58112 -2.96796,-3.36523 -0.67746,-7.72266 1.82507,-3.47186 2.09515,-6.40802 0.95062,-10.33386 -1.82529,-6.26108 -1.32312,-6.6839 13.64685,-11.48987 5.08246,-1.63168 10.09271,-3.97647 11.13391,-5.21066 2.73923,-3.24689 20.59171,-8.86563 24.03681,-7.56509 1.60961,0.60763 2.9266,2.63382 2.9266,4.50265 0,4.02045 9.50501,7.94235 14.02042,5.7851 4.09646,-1.95713 44.58575,-1.36167 46.47229,0.68341 1.70346,1.84662 7.38842,23.53403 7.38842,28.18588 0,1.6236 -2.16635,4.92706 -4.81411,7.34107 -4.77359,4.35211 -4.78397,4.41308 -1.23175,7.24273 2.67459,2.13056 3.53244,4.81049 3.3854,10.57581 -0.1149,4.50555 1.27057,10.64001 3.32618,14.72723 3.05377,6.07196 3.1755,7.26557 0.91375,8.96039 -1.43512,1.07544 -6.05047,5.66156 -10.25628,10.19141 -6.71332,7.23053 -7.39612,8.69714 -5.59256,12.01239 2.82739,5.1972 1.96432,5.27685 -6.27359,0.57885 z"
       id="path3934" />
    <path
       style="fill:#5895c4"
       d="m 220.70959,585.14673 c -2.06958,-2.16718 -3.76284,-5.39575 -3.76284,-7.17468 0,-3.02216 -0.21441,-3.04352 -3.26677,-0.32605 -3.46755,3.08709 -5.80297,3.76812 -5.45342,1.59033 0.65416,-4.07575 -0.75497,-6.08051 -5.39162,-7.67053 -2.84906,-0.97706 -5.60612,-3.37922 -6.12686,-5.33814 -0.71094,-2.67444 -1.86799,-3.27399 -4.64483,-2.40698 -2.81862,0.88006 -3.69805,0.39117 -3.69805,-2.05573 0,-4.56378 6.34462,-8.11566 10.54582,-5.90381 2.43335,1.28113 5.16138,0.86042 10.23035,-1.57775 3.9433,-1.89667 7.18448,-2.581 7.54611,-1.59321 0.34868,0.95234 2.55928,2.4516 4.91246,3.33173 2.95453,1.1051 4.27854,2.97327 4.27854,6.03705 0,2.72491 1.0096,4.43683 2.61667,4.43683 3.62381,0 6.47201,5.70825 4.43142,8.88122 -0.89889,1.39777 -1.67111,1.75055 -1.71605,0.784 -0.0449,-0.96649 -0.91008,-0.35748 -1.92262,1.35346 -1.01253,1.71093 -1.36606,4.58276 -0.7856,6.38183 1.60434,4.97272 -3.46171,5.78565 -7.79271,1.25043 z"
       id="path3932" />
    <path
       style="fill:#5895c4"
       d="m 229.96966,584.06543 c -0.20607,-2.89764 0.29841,-5.26843 1.12104,-5.26843 2.78663,0 5.57365,4.8106 4.45237,7.68518 -1.82876,4.68823 -5.1712,3.23889 -5.57341,-2.41675 z"
       id="path3930" />
    <path
       style="fill:#5895c4"
       d="m 91.143591,570.44977 c 9.383459,-12.30799 12.093379,-14.43579 18.425479,-14.46753 5.96943,-0.03 8.8967,-2.24207 12.83007,-9.69562 1.59948,-3.03101 1.53389,-3.13098 -0.47676,-0.72638 -1.28231,1.53357 -4.20604,3.77075 -6.49717,4.97156 -3.51083,1.84003 -4.50824,1.72235 -6.34491,-0.7486 -1.1986,-1.61255 -3.3433,-2.73651 -4.76606,-2.49774 -1.42273,0.23877 -4.00376,-0.17444 -5.735653,-0.91827 -1.849899,-0.79456 -4.244797,-0.45764 -5.805634,0.81665 -1.46122,1.19299 -2.716476,1.87457 -2.78949,1.51458 -1.578438,-7.78259 -1.434006,-8.11535 4.200546,-9.67883 3.943367,-1.09411 6.740201,-3.52283 8.877671,-7.7091 1.8341,-3.59211 2.38183,-6.35468 1.32863,-6.70112 -0.98558,-0.32415 -1.33756,-1.31268 -0.78224,-2.19665 0.55538,-0.88391 -0.27175,-1.60718 -1.83805,-1.60718 -2.294232,0 -2.476147,-0.68317 -0.93573,-3.51465 2.06437,-3.79467 11.38942,-4.95379 13.45118,-1.67199 0.79417,1.2641 1.9334,1.20929 3.62833,-0.1745 2.09425,-1.70984 2.06064,-2.42054 -0.2207,-4.6648 -1.64257,-1.6159 -2.08673,-3.43112 -1.13972,-4.65814 2.61145,-3.38364 1.56808,-12.55435 -1.42833,-12.55435 -5.64558,0 -6.76773,-8.27945 -1.78635,-13.1799 3.57269,-3.51462 3.57269,-3.51462 -0.89317,-3.51462 -2.45622,0 -4.46586,0.70618 -4.46586,1.5693 0,2.59134 -5.64398,3.90036 -8.115735,1.88233 -1.717216,-1.40201 -2.455566,-1.10608 -2.899681,1.1622 -0.564384,2.88244 -0.75988,2.88177 -3.702873,-0.0135 -2.951836,-2.9039 -2.930191,-3.39764 0.433289,-9.88345 2.274155,-4.38529 2.880226,-7.22821 1.694611,-7.94907 -1.015144,-0.61719 -1.318321,-2.75683 -0.673729,-4.75476 0.890778,-2.76099 0.53183,-3.3909 -1.49601,-2.6254 -1.467392,0.55393 -3.569801,0.12003 -4.672012,-0.96429 -1.481133,-1.45706 -2.036781,-1.30661 -2.12957,0.57666 -0.07602,1.5426 -0.68969,1.16119 -1.555138,-0.96652 -0.941452,-2.31452 -0.26281,-5.91489 1.987389,-10.54392 l 3.417015,-7.02926 -4.367485,5.08627 c -2.81572,3.27911 -5.38134,4.70358 -7.220901,4.00912 -3.819748,-1.44195 -3.638069,-4.66726 0.272713,-4.84085 1.719467,-0.0763 2.160133,-0.52484 0.979347,-0.99682 -1.590599,-0.63581 -1.35923,-2.53467 0.893166,-7.32987 1.671974,-3.55945 3.843796,-7.05273 4.826286,-7.76285 1.008751,-0.72906 0.42556,-1.30276 -1.33976,-1.31799 -4.66433,-0.0401 -4.308334,-9.96484 0.410278,-11.43811 1.94503,-0.6073 3.38797,-1.64908 3.206528,-2.31509 -0.181442,-0.66599 0.636993,-3.97867 1.818733,-7.36151 l 2.148621,-6.15061 11.615138,-0.16302 c 13.56903,-0.19046 14.75624,1.78229 5.32947,8.85559 -3.45711,2.59402 -5.83527,5.43332 -5.2848,6.30954 0.55049,0.87622 -0.33075,3.59247 -1.95831,6.03607 -3.321142,4.9863 -1.988188,5.51025 4.59708,1.80695 4.81942,-2.71024 22.42363,-3.57193 23.93176,-1.17139 1.83205,2.91614 -7.58982,22.24661 -12.212,25.05493 -6.58869,4.00314 -7.88486,5.73963 -3.23462,4.33344 6.78659,-2.05222 4.44735,1.67776 -2.63147,4.19589 -6.4083,2.27963 -6.49653,2.42197 -2.42063,3.90524 2.32658,0.84665 5.58587,1.11609 7.24289,0.59873 4.17631,-1.30399 14.68277,6.08743 16.21782,11.40939 0.69695,2.41632 2.16914,7.65964 3.27155,11.65185 1.52589,5.52573 3.29818,7.78574 7.42395,9.46692 7.75105,3.15842 9.28494,6.97205 4.93156,12.26087 l -3.58644,4.35711 5.40521,2.16971 c 6.6963,2.68796 8.87128,8.37106 4.86881,12.72189 -2.70597,2.94147 -2.68772,3.25837 0.25149,4.36792 1.74303,0.65796 3.45244,0.3603 3.79866,-0.66156 0.90314,-2.66534 9.56334,-2.18817 13.49883,0.74378 5.14343,3.83185 2.59478,14.13293 -4.37378,17.67798 -2.93555,1.49334 -4.91375,3.3894 -4.39603,4.2135 0.5177,0.8241 -0.31079,1.97101 -1.84117,2.5487 -4.33003,1.63465 -1.16641,4.58991 4.91351,4.58991 4.74718,0 5.16693,0.362 3.1676,2.73187 -4.09231,4.85083 -9.53263,6.79584 -19.56887,6.99616 -19.76982,0.39465 -23.43224,0.81762 -22.32601,2.57849 1.23728,1.96936 -4.10785,1.54175 -7.61126,-0.60895 -3.49205,-2.14368 -8.61464,0.22748 -10.83144,5.01373 -1.76006,3.80011 -2.54388,4.10376 -6.27569,2.43109 -3.31348,-1.48516 -5.494864,-1.28546 -9.78234,0.89563 -8.048874,4.09461 -8.467941,3.5445 -2.88163,-3.78283 z"
       id="path3928" />
    <path
       style="fill:#5895c4"
       d="m 225.87848,555.302 c -2.45623,-1.05798 -5.42531,-2.82501 -6.59796,-3.92676 -1.17266,-1.10174 -4.38807,-1.70556 -7.14537,-1.34179 l -5.01329,0.66143 5.13232,-2.38055 5.13232,-2.38049 -5.37883,-1.05829 -5.37883,-1.05829 4.26578,-8.28906 c 2.34619,-4.55896 4.26578,-9.34125 4.26578,-10.6272 0,-1.28601 0.85213,-2.33814 1.8936,-2.33814 1.10228,0 1.5394,2.21088 1.04604,5.29059 -1.11289,6.94654 4.52671,10.61725 9.50406,6.18604 2.6593,-2.36756 2.86512,-3.60395 1.19116,-7.15564 -1.11299,-2.36145 -2.62651,-4.29975 -3.36338,-4.30731 -2.88644,-0.0295 -1.24845,-8.58588 1.78637,-9.3313 15.46267,-3.79816 24.01831,3.91699 14.29075,12.8869 -3.73486,3.44397 -3.80291,3.86316 -0.96164,5.92425 2.70435,1.96167 2.76076,2.63495 0.48825,5.82666 -1.41314,1.98481 -4.61546,4.1139 -7.11625,4.73133 -3.81591,0.9422 -4.25473,1.65973 -2.72954,4.46325 0.99953,1.83728 1.21822,4.8722 0.48593,6.74427 -1.13396,2.89898 -1.99367,3.11847 -5.79727,1.4801 z"
       id="path3926" />
    <path
       style="fill:#5895c4"
       d="m 541.88977,552.43726 c -0.56049,-1.44983 -3.36359,-2.79261 -6.22919,-2.98401 -2.8656,-0.19147 -11.1402,-0.7027 -18.38806,-1.13611 -7.24786,-0.43347 -13.67871,-1.55152 -14.29077,-2.48456 -3.1926,-4.8667 -34.34872,-5.90655 -39.50238,-1.31836 -4.00443,3.56513 -7.18558,2.23956 -5.93308,-2.47217 0.58469,-2.19952 -0.37701,-4.03149 -2.7807,-5.29699 -3.95742,-2.08356 -3.37954,-7.15296 0.8154,-7.15296 3.77158,0 4.90903,-7.78637 2.55033,-17.45874 -2.44452,-10.02435 -1.57291,-12.50656 4.01953,-11.44705 4.88208,0.92493 10.62045,-0.70395 9.38845,-2.66498 -0.84619,-1.34689 7.3454,-4.47638 10.16892,-3.88492 0.70151,0.14695 0.84766,-0.82952 0.3248,-2.16995 -0.52286,-1.34042 -0.092,-2.9592 0.95746,-3.59726 1.04947,-0.63809 1.90814,-2.29965 1.90814,-3.69241 0,-2.77948 6.19974,-9.56152 8.7406,-9.56152 2.35223,0 3.87073,-4.944 1.7337,-5.64475 -1.19525,-0.39197 -1.06646,-2.2471 0.37159,-5.35202 1.7405,-3.75793 3.0646,-4.53888 6.32907,-3.73285 3.07794,0.75995 5.26681,-0.25445 8.60409,-3.98745 2.46173,-2.7537 4.50134,-4.04303 4.53235,-2.86521 0.0311,1.1778 1.26227,1.68631 2.73596,1.12998 1.47376,-0.55637 2.67957,-0.0894 2.67957,1.0375 0,1.12699 0.73126,1.60443 1.62512,1.06098 2.72894,-1.65915 7.14239,0.91406 6.1095,3.56207 -1.15326,2.95645 1.44909,3.29703 4.23687,0.5545 2.93708,-2.88931 11.59577,1.78794 14.5553,7.86246 1.86096,3.81961 1.97388,6.03012 0.47376,9.26916 -1.56226,3.37305 6.56036,17.27015 8.27972,18.53312 1.71936,1.26297 3.12616,3.48144 3.12616,4.92996 0,1.44852 1.20575,2.71194 2.6795,2.80765 6.25037,0.40582 7.30207,0.79556 6.3285,2.34518 -0.56525,0.89975 -0.21076,2.1326 0.78772,2.73972 3.05395,1.85675 2.03729,4.38693 -2.59748,6.46432 -3.29693,1.47785 -5.044,1.46283 -6.90838,-0.0593 -3.06202,-2.5 -7.63648,1.87159 -5.50635,5.26215 0.73883,1.17603 1.90796,5.17572 2.59802,8.88819 1.12769,6.06658 0.83972,6.85247 -2.84442,7.76208 -5.61871,1.38733 -9.30328,5.83411 -10.04126,12.11859 -0.37836,3.22186 -1.01538,4.24689 -1.63806,2.63599 z"
       id="path3924" />
    <path
       style="fill:#5895c4"
       d="m 34.527918,549.2771 c -0.11636,-0.67822 -0.11636,-1.82623 0,-2.55115 0.11636,-0.72491 -0.639759,-1.31799 -1.680229,-1.31799 -1.04048,0 -1.375051,-0.82251 -0.7435,-1.82776 0.746719,-1.1886 -0.621941,-1.44733 -3.91386,-0.73987 l -5.06212,1.08783 4.17193,-3.3349 c 2.36305,-1.88891 3.912119,-4.76483 3.572701,-6.63287 -0.4575,-2.51795 1.09087,-3.80829 6.546139,-5.45538 6.223591,-1.87909 6.511669,-2.17487 2.232941,-2.29248 -5.859859,-0.16108 -6.5994,-4.34082 -1.339771,-7.57215 5.168941,-3.1756 4.399811,-4.86029 -2.232929,-4.89105 -3.1931,-0.0148 -6.98562,-0.76105 -8.427851,-1.65839 -2.20669,-1.37292 -1.9944,-2.16711 1.339762,-5.01181 4.930119,-4.20639 5.090469,-7.36142 0.374149,-7.36142 -3.140659,0 -3.30974,-0.43805 -1.356649,-3.51461 2.493898,-3.9285 7.73881,-4.68644 9.120459,-1.318 0.711571,1.73477 0.93066,1.72776 1.04203,-0.0335 0.0965,-1.5259 1.644032,-1.85903 4.900612,-1.05499 3.908199,0.96497 4.56123,0.66669 3.650719,-1.66754 -2.16655,-5.5542 2.78413,-5.06961 7.912979,0.77451 l 5.208961,5.93545 3.48494,-4.39328 c 1.916687,-2.41632 3.502792,-3.43561 3.524628,-2.26511 0.02184,1.17051 1.751404,3.69696 3.84346,5.61432 4.231468,3.87815 6.986679,20.27558 4.75219,28.28247 -2.599571,9.31519 -3.52684,10.7049 -5.867584,8.79383 -1.63826,-1.33759 -2.727776,-1.36615 -3.527901,-0.0925 -0.636711,1.01343 -2.539253,1.84265 -4.227894,1.84265 -1.68866,0 -4.5042,1.64746 -6.256809,3.66107 -1.75259,2.01361 -4.290871,3.24426 -5.640629,2.73474 -1.349731,-0.50958 -2.733551,-0.10168 -3.0751,0.90631 -0.74855,2.20917 -12.024971,7.107 -12.325771,5.35358 z"
       id="path3922" />
    <path
       style="fill:#5895c4"
       d="m 453.46631,495.45621 c -0.88831,-1.97122 -3.30869,-4.40534 -5.37863,-5.40918 -3.00889,-1.45914 -3.45816,-2.63733 -2.24051,-5.87543 1.96695,-5.23083 -1.7399,-9.05633 -8.77542,-9.05633 -6.61087,0 -10.41449,-4.23285 -11.91687,-13.26172 -0.9885,-5.94049 -0.54773,-7.67618 2.67752,-10.54389 3.25711,-2.89605 6.03143,-3.35476 17.74289,-2.93353 7.63516,0.2746 15.74978,0.85309 18.0325,1.28558 2.28274,0.43247 4.80627,-0.18762 5.60791,-1.37793 1.09137,-1.62054 1.92038,-1.39166 3.29995,0.91107 1.01331,1.69141 3.25248,3.07529 4.97593,3.07529 4.91156,0 15.20541,11.41229 14.0874,15.61804 -0.51813,1.94916 -0.0226,3.91483 1.10122,4.36814 1.12381,0.45331 0.63657,0.88659 -1.08279,0.96289 -1.71936,0.0763 -3.1261,1.32492 -3.1261,2.77472 0,1.4498 -1.20581,2.63598 -2.67953,2.63598 -1.60895,0 -2.67951,1.62287 -2.67951,4.06192 0,4.66077 -6.00485,11.75394 -9.95056,11.75394 -1.46631,0 -3.09491,1.09952 -3.61911,2.44339 -1.56811,4.02002 -14.12329,2.90094 -16.07629,-1.43295 z"
       id="path3920" />
    <path
       style="fill:#5895c4"
       d="m 72.947806,496.1459 c -2.073936,-0.77331 -4.344254,-2.85607 -5.045166,-4.62838 -1.183365,-2.99231 -1.519974,-2.92615 -4.71434,0.92627 l -3.439972,4.14865 -3.34734,-4.06659 c -3.334568,-4.05112 -3.321999,-4.09131 3.291111,-10.53226 8.489258,-8.26828 14.137466,-10.18365 17.33699,-5.87915 1.302956,1.75296 2.369026,4.61765 2.369026,6.36597 0,1.74832 0.803871,3.17877 1.786362,3.17877 2.858528,0 2.064369,5.13104 -1.33976,8.65585 -2.236061,2.31534 -4.199722,2.83661 -6.896912,1.83088 z"
       id="path3918" />
    <path
       style="fill:#5895c4"
       d="m 323.4295,489.91907 c -1.48358,-3.80326 -0.78515,-4.49039 2.52118,-2.4802 1.91284,1.16303 2.08216,2.1106 0.63202,3.5372 -1.45019,1.42661 -2.29486,1.14347 -3.1532,-1.057 z"
       id="path3916" />
    <path
       style="fill:#5895c4"
       d="m 46.895129,481.67932 c 1.15728,-1.37176 1.718182,-2.87381 1.24646,-3.33789 -0.471741,-0.46405 2.401581,-2.64581 6.385128,-4.8483 3.983551,-2.20251 7.688023,-3.56659 8.232143,-3.03131 0.54414,0.53531 -0.55262,3.5806 -2.437222,6.76734 -2.633678,4.45334 -4.826939,5.92712 -9.4786,6.36917 -5.05719,0.48059 -5.706161,0.16513 -3.94791,-1.91901 z"
       id="path3914" />
    <path
       style="fill:#5ca5e2;fill-opacity:1"
       d="m 268.3042,479.17584 c -2.06809,-0.53167 -3.1261,-2.52331 -3.1261,-5.88492 0,-3.06414 -1.25613,-5.74261 -3.16434,-6.74725 -2.65707,-1.39892 -3.13846,-3.98498 -3.00287,-16.13113 0.14353,-12.85541 0.61707,-14.82804 4.25544,-17.72632 2.25167,-1.79367 5.69198,-3.2612 7.64517,-3.2612 1.95321,0 5.92004,-2.49454 8.81518,-5.54343 7.0008,-7.37262 10.35733,-4.79922 6.95768,5.33444 -2.98182,8.88822 -1.30936,16.02485 3.75537,16.02485 3.16381,0 3.40042,0.42312 1.49774,2.67846 -1.2428,1.47312 -2.67401,2.27078 -3.18048,1.77255 -1.70749,-1.67974 -5.512,2.81232 -4.52494,5.34272 0.60593,1.55343 -0.15426,2.5075 -1.99795,2.5075 -1.63684,0 -2.47925,0.79077 -1.87204,1.7573 0.60721,0.96652 0.0518,1.75985 -1.23434,1.76294 -1.57236,0.004 -2.35386,2.5942 -2.38566,7.90792 -0.026,4.34626 0.77784,7.91443 1.78635,7.9292 1.00851,0.0148 0.62787,0.79352 -0.84589,1.73044 -2.80816,1.78528 -4.23449,1.86832 -9.37832,0.54593 z"
       id="path3912" />
    <path
       style="fill:#5ca5e2;fill-opacity:1"
       d="m 303.20947,474.30865 c -3.15375,-2.21112 -5.29922,-4.44805 -4.76773,-4.97094 0.53153,-0.52289 0.11267,-2.51999 -0.93079,-4.43799 -1.67938,-3.08701 -0.94857,-3.92593 6.36747,-7.30899 6.64065,-3.07077 8.5592,-3.36469 9.76364,-1.49582 2.10599,3.26764 1.92373,8.90884 -0.24521,7.59012 -0.98944,-0.60156 -2.31238,0.22238 -2.93985,1.83096 -0.62747,1.60861 -0.15244,3.52567 1.05557,4.26013 1.6127,0.9805 1.39105,1.63944 -0.83407,2.47943 -2.46222,0.92948 -2.61676,1.63437 -0.82419,3.75916 3.18048,3.76999 10e-4,2.95377 -6.64484,-1.70606 z"
       id="path3910" />
    <path
       style="fill:#5895c4"
       d="m 418.56811,477.0531 c 1.34406,-0.83765 3.14045,-2.60483 3.99192,-3.92706 1.1405,-1.77103 1.55536,-1.36289 1.5755,1.54989 0.0204,2.94471 -0.99857,3.94712 -3.99192,3.92707 -2.96093,-0.0198 -3.37579,-0.42795 -1.5755,-1.5499 z"
       id="path3908" />
    <path
       style="fill:#5895c4"
       d="m 342.8107,474.99835 c -1.92261,-3.06027 0.26709,-3.70834 2.71713,-0.8042 1.409,1.67014 1.54453,2.67844 0.35999,2.67844 -1.0448,0 -2.42951,-0.84342 -3.07712,-1.87424 z"
       id="path3906" />
    <path
       style="fill:#5ca5e2;fill-opacity:1"
       d="m 321.52325,468.20581 c -0.64859,-1.03241 -0.77157,-2.52609 -0.27325,-3.31928 0.49832,-0.79318 -0.64823,-3.95636 -2.54785,-7.02926 -1.8996,-3.07291 -2.66181,-5.58713 -1.69376,-5.58713 2.20633,0 2.32852,-11.00992 0.14725,-13.26773 -3.44315,-3.56393 -14.99692,-27.92679 -17.32743,-36.53735 -2.93084,-10.8288 -3.34994,-19.26572 -0.75656,-15.23035 2.87537,4.47418 6.3194,-0.99942 6.12796,-9.7392 -0.0942,-4.3006 0.59467,-7.81927 1.53086,-7.81927 0.93618,0 1.29446,-1.04523 0.79614,-2.32279 -0.49835,-1.27749 0.54373,-3.21344 2.3157,-4.30206 4.0304,-2.47617 5.98777,-13.50827 3.73529,-21.05289 -1.3125,-4.39624 -1.16479,-5.7113 0.64136,-5.7113 2.01514,0 4.44611,-4.95636 4.52515,-9.22592 0.0134,-0.72489 -1.7843,-3.09726 -3.99491,-5.27195 -3.06875,-3.01889 -4.10272,-6.23968 -4.37207,-13.6192 -0.19403,-5.31588 -0.48751,-11.64224 -0.65219,-14.05853 -0.16467,-2.41632 -0.17148,-6.76569 -0.0151,-9.66525 0.15634,-2.89957 0.22543,-6.45816 0.15356,-7.90793 -0.45871,-9.25214 4.84433,-20.14084 10.69934,-21.96893 1.79355,-0.56002 5.31882,-0.51009 7.83395,0.11091 3.71393,0.91699 4.95145,0.31186 6.5879,-3.22136 2.09326,-4.51956 -0.18055,-11.82429 -3.68064,-11.82429 -0.89633,0 0.72012,-4.94245 3.59207,-10.98323 3.94016,-8.2876 5.34201,-14.05056 5.7118,-23.48091 0.47872,-12.20989 0.61343,-12.53359 5.84906,-14.05854 4.09085,-1.1915 5.3648,-2.60051 5.38342,-5.95416 0.0134,-2.41632 2.09735,-7.55646 4.63089,-11.42256 8.89926,-13.57984 9.2745,-12.75508 6.18976,-17.38649 -3.4571,-5.19049 -3.49649,-6.09461 -0.26551,-6.09461 1.39753,0 3.50882,-2.96548 4.69171,-6.58995 1.1829,-3.62446 3.34363,-7.93486 4.80161,-9.57864 2.36053,-2.66138 3.0863,-2.70804 6.62662,-0.42603 3.69061,2.37886 4.1249,2.24068 6.05502,-1.9266 1.14358,-2.4691 2.07925,-7.21985 2.07925,-10.55721 0,-3.33735 0.80387,-6.06792 1.78635,-6.06792 0.98248,0 1.78635,0.79079 1.78635,1.75732 0,0.96652 1.64764,1.75731 3.66137,1.75731 2.0138,0 6.17575,1.27908 9.24884,2.84243 5.25067,2.67108 5.73355,2.64582 8.01169,-0.41907 1.4689,-1.97624 1.71414,-3.49433 0.62231,-3.85235 -1.0512,-0.3447 -0.5993,-2.39646 1.08475,-4.9249 2.30039,-3.45377 2.48017,-5.21163 0.88522,-8.65528 -1.5964,-3.44681 -1.50561,-4.321325 0.44864,-4.321325 1.34757,0 2.89252,1.134145 3.43323,2.520305 0.54071,1.38617 6.78308,6.52729 13.87198,11.42472 17.05454,11.7823 21.95947,18.91447 21.45441,31.19627 -0.21118,5.13457 0.38595,9.33556 1.32696,9.33556 0.94101,0 1.31504,1.48921 0.83121,3.30935 -0.48386,1.82016 0.33231,3.61506 1.81363,6.43314 2.11938,4.0318 2.31882,6.85147 0.93579,13.23059 -1.17761,5.43173 -1.14838,10.33238 0.0885,14.85134 1.01535,3.70945 1.86923,7.46937 1.89752,8.35536 0.078,2.44522 -11.87811,1.92483 -15.03738,-0.65451 -2.02539,-1.65363 -2.77469,-1.7047 -2.77469,-0.18917 0,1.14191 -0.80383,1.58747 -1.78635,0.99012 -1.03796,-0.63108 -1.78634,1.10365 -1.78634,4.14062 0,3.50684 -1.7287,6.8318 -5.25357,10.10465 -2.88944,2.68286 -4.82981,5.55246 -4.31186,6.37684 0.51788,0.8244 -0.50971,3.63881 -2.2836,6.25427 -3.67447,5.41762 -3.47016,9.05999 0.68493,12.21113 2.60001,1.97181 2.46442,2.61859 -1.3966,6.66169 -2.35196,2.46286 -5.11011,6.98616 -6.12924,10.05185 -1.30756,3.93315 -4.48221,7.07164 -10.78476,10.66188 -8.15589,4.646 -24.11567,21.51636 -24.11567,25.49161 0,0.91174 -2.06341,2.98776 -4.58538,4.61337 -3.42792,2.20954 -4.10532,3.52478 -2.68344,5.21015 1.37374,1.62841 0.88531,5.13391 -1.75895,12.62298 -2.82873,8.01163 -3.39987,12.64163 -2.51251,20.36869 1.0434,9.08602 1.59491,10.09664 6.03342,11.05566 5.12707,1.10782 18.01129,15.83655 18.01129,20.58981 0,1.43097 -2.20258,3.58902 -4.89462,4.79566 -4.5723,2.0494 -4.68289,2.34619 -1.67945,4.50668 3.46402,2.49176 1.03504,5.59155 -2.63366,3.36102 -1.14328,-0.6951 -1.58213,-0.48944 -0.98471,0.46146 0.59274,0.94345 -0.43879,2.9927 -2.29224,4.55389 -2.41141,2.03119 -3.61548,2.2453 -4.23331,0.75281 -0.53402,-1.29001 -0.91107,-1.08011 -0.98834,0.55026 -0.0687,1.4498 -2.58154,4.62293 -5.5841,7.05146 -4.82297,3.90094 -5.56125,5.74398 -6.33545,15.81585 -0.482,6.27021 -1.36679,12.98197 -1.96622,14.91501 -0.59946,1.93305 -1.24896,6.08026 -1.44336,9.21607 -0.19443,3.13577 -1.83627,8.93624 -3.64859,12.88995 -3.27322,7.14072 -3.34634,7.18097 -10.9939,6.05279 -6.3815,-0.9414 -7.69879,-0.64856 -7.69879,1.71161 0,1.56604 -0.71277,2.414 -1.58392,1.88434 -2.46051,-1.49594 -5.65567,3.35739 -5.13599,7.80139 0.33676,2.87995 -0.53247,4.11194 -3.10498,4.40079 -1.96496,0.22064 -4.89813,0.95248 -6.51809,1.62637 -1.62,0.67386 -3.47611,0.3805 -4.12473,-0.65191 z"
       id="path3904" />
    <path
       style="fill:#5895c4"
       d="m 486.97812,456.72339 c -3.04865,-3.4158 -6.88571,-6.21057 -8.52677,-6.21057 -1.64108,0 -3.9902,-1.35401 -5.2203,-3.00898 -1.67078,-2.24777 -2.85034,-2.52713 -4.66281,-1.10434 -1.33441,1.04758 -3.63202,1.71351 -5.10575,1.47989 -1.47375,-0.23358 -8.61993,-0.91894 -15.88046,-1.52298 -11.44617,-0.95227 -13.99881,-0.61319 -19.20322,2.55106 l -6.00229,3.64932 0.011,-4.97595 c 0.006,-2.73675 1.21185,-7.241 2.67951,-10.00943 1.46768,-2.76843 2.68084,-6.72241 2.69589,-8.78659 0.0372,-5.10233 1.7092,-7.00021 8.0112,-9.09329 4.74704,-1.57663 5.81802,-1.24402 9.37829,2.9125 2.21061,2.58081 4.01929,5.53888 4.01929,6.57352 0,1.03464 1.60773,2.72757 3.57269,3.76212 7.19315,3.78707 15.45838,-4.82834 13.41449,-13.98285 -0.96597,-4.32657 -0.36743,-5.35654 4.50125,-7.74591 6.34458,-3.11365 9.97571,-1.69577 17.52164,6.84179 3.02042,3.41733 4.66803,4.07407 7,2.79026 2.14386,-1.1803 4.54749,-0.80875 8.09149,1.25073 4.47547,2.60077 4.93515,3.6792 4.09296,9.60241 -0.53091,3.73395 -0.24362,6.24393 0.65228,5.69922 0.88056,-0.53537 2.53168,1.80066 3.66913,5.19114 1.84836,5.5097 1.62656,6.72061 -2.08899,11.39965 -2.78848,3.51166 -5.31155,4.98066 -7.66385,4.46216 -1.92877,-0.42517 -4.83587,0.41019 -6.46023,1.85636 -2.66214,2.37002 -3.50012,2.01684 -8.49646,-3.58124 z"
       id="path3902" />
    <path
       style="fill:#5ca5e2;fill-opacity:1"
       d="m 386.64963,424.06915 c 0,-5.05191 7.00998,-13.97461 10.97891,-13.97461 2.62192,0 1.66498,3.57227 -1.25189,4.6734 -1.62543,0.61359 -2.56058,2.676 -2.25467,4.97248 0.52493,3.94073 -2.97711,9.6846 -5.90473,9.6846 -0.86221,0 -1.56762,-2.41013 -1.56762,-5.35587 z"
       id="path3900" />
    <path
       style="fill:#5ca5e2;fill-opacity:1"
       d="m 489.10046,416.74173 c -4.77966,-5.82025 -12.87539,-10.52863 -15.41696,-8.96631 -4.77368,2.93448 -7.02539,2.11615 -6.17789,-2.24518 0.88352,-4.54678 -1.82736,-7.74917 -3.84341,-4.54019 -1.46082,2.32526 -3.94818,0.70096 -6.91364,-4.51474 -1.80654,-3.17737 -1.80654,-3.95923 0,-3.98087 1.38935,-0.0166 1.56574,-0.52008 0.4617,-1.31796 -0.98248,-0.71011 -2.04788,-3.12884 -2.36755,-5.37494 -0.41717,-2.93109 0.46521,-4.35306 3.1261,-5.0376 2.03903,-0.52453 3.70734,-1.52536 3.70734,-2.22403 0,-2.22686 9.21969,-5.49597 12.55935,-4.45324 1.76941,0.55246 3.66712,0.28814 4.21714,-0.58737 1.19778,-1.90653 7.24716,-1.3581 14.15426,1.2832 2.76581,1.05765 8.54715,1.923 12.84744,1.923 l 7.81867,0 -4.34076,7.4686 c -4.5871,7.89246 -5.69086,18.47702 -2.53217,24.28314 1.44364,2.65363 1.08014,4.21832 -1.6495,7.10065 -1.92566,2.03335 -4.40183,3.14944 -5.50263,2.48016 -1.10077,-0.66925 -3.08981,-0.32818 -4.42013,0.75794 -1.8645,1.52224 -3.17685,1.05154 -5.72736,-2.05426 z"
       id="path3898" />
    <path
       style="fill:#5895c4"
       d="m 238.60098,303.4693 c -2.10582,-3.56244 -2.61433,-2.42221 -0.89055,1.99692 0.61261,1.57052 1.49016,2.48529 1.95009,2.03283 0.45993,-0.45245 -0.0169,-2.26584 -1.05954,-4.02975 z"
       id="path3894" />
    <path
       style="fill:#5ca5e2;fill-opacity:1"
       d="m 436.6673,401.28628 c 0,-2.16757 1.60308,-3.82183 4.36431,-4.5036 6.0499,-1.49374 9.33042,0.76212 5.14518,3.53806 -6.4823,4.29962 -9.50949,4.60696 -9.50949,0.96554 z"
       id="path3890" />
    <path
       style="fill:#5ca5e2;fill-opacity:1"
       d="m 441.38232,389.54474 c -2.01175,-1.9791 -1.22522,-4.05265 1.5372,-4.05265 1.47373,0 2.67951,0.74411 2.67951,1.6536 0,2.21594 -2.78952,3.80301 -4.21671,2.39905 z"
       id="path3888" />
    <path
       style="fill:#5ca5e2;fill-opacity:1"
       d="m 447.98358,361.64578 c -0.55051,-1.41128 -0.58728,-4.12204 -0.0817,-6.02386 0.77069,-2.8993 0.38932,-3.17893 -2.36072,-1.73105 -5.09228,2.681 -9.4263,2.16321 -8.20031,-0.97974 0.61773,-1.58365 0.14117,-2.59817 -1.14862,-2.44534 -1.21244,0.14368 -3.88559,-0.27936 -5.94034,-0.94013 -3.03149,-0.97485 -3.64081,-2.419 -3.23154,-7.65924 0.27741,-3.55185 0.647,-6.85327 0.82138,-7.33655 0.17432,-0.48324 0.25193,-1.38275 0.17243,-1.99881 -0.0795,-0.61611 0.60046,-3.6755 1.51095,-6.79867 1.23325,-4.2302 0.95539,-7.01035 -1.08944,-10.90033 -1.50971,-2.87201 -2.297,-6.37009 -1.74958,-7.77353 0.54746,-1.40344 0.0672,-5.96573 -1.06726,-10.13843 -1.87652,-6.90198 -1.7128,-7.95621 1.81415,-11.68042 2.13226,-2.25152 3.67554,-5.32806 3.42947,-6.83679 -0.29879,-1.83234 1.20035,-2.92935 4.51508,-3.30393 2.72931,-0.30844 4.76276,-1.49462 4.51874,-2.63598 -0.80231,-3.75278 4.73599,-13.51679 8.29776,-14.62888 4.50336,-1.40606 6.04519,-3.06814 13.36419,-14.40634 7.98609,-12.37158 10.50684,-14.67653 14.63947,-13.3862 3.11685,0.97316 3.33212,0.3822 2.37878,-6.5303 -1.83038,-13.2721 -2.54358,-15.2508 -5.87149,-16.28986 -10.19314,-3.1826 -16.03158,-16.80183 -13.06625,-30.47943 1.38165,-6.37288 1.18329,-9.19934 -0.92737,-13.2146 -1.50155,-2.85649 -2.21222,-4.96069 -1.61239,-7.31177 0.62994,-2.46916 0.28491,-4.20404 -0.83613,-4.20404 -1.14141,0 -1.75247,-3.36766 -1.52008,-8.37788 0.52903,-11.40549 -5.70923,-20.32495 -21.76178,-31.11493 -13.28927,-8.9326 -19.82791,-16.427486 -12.27386,-14.068874 3.16876,0.98938 3.77423,0.678558 2.92401,-1.50106 -0.69901,-1.791969 0.18649,-3.141853 2.54388,-3.877869 1.9889,-0.62101 3.83991,-0.859184 4.11332,-0.52932 0.2734,0.329887 2.62545,4.229599 5.22674,8.666013 6.21799,10.60466 12.24298,13.44915 18.69446,8.82595 4.7027,-3.37003 4.75095,-3.36638 12.18747,0.92089 l 7.46603,4.30429 1.13968,-5.10465 c 0.68909,-3.08635 2.92475,-5.90476 5.65448,-7.12828 3.86713,-1.73334 4.34342,-2.79139 3.32004,-7.375097 -1.54236,-6.90818 5.354,-24.471657 9.61404,-24.484787 1.60526,-0.005 6.09784,-1.902092 9.98352,-4.215843 l 7.06492,-4.206848 7.49661,6.043152 c 9.38617,7.566246 11.03998,13.08432 6.00586,20.0392 -2.05841,2.843781 -3.21106,6.01651 -2.5614,7.050529 0.64965,1.034004 -0.1557,3.33329 -1.7898,5.109474 -1.95917,2.12976 -2.32123,3.62434 -1.06329,4.38921 1.34546,0.81804 1.35058,2.18365 0.0171,4.63467 -1.08551,1.99532 -1.39044,6.75426 -0.71637,11.17673 0.94476,6.19785 2.12689,8.09007 6.05371,9.6902 2.68384,1.09361 6.55286,4.86847 8.59778,8.38858 l 3.71814,6.40016 -6.05426,11.82686 -6.05432,9.82683 5.26464,12.5594 c 7.48664,17.86043 9.2071,24.61772 6.52533,25.63008 -4.39337,1.65848 -4.92779,24.84256 -0.64367,27.92421 1.85156,1.33194 2.50989,3.47362 1.841,5.9897 -0.71094,2.67467 0.16583,5.02263 2.76514,7.40491 4.99481,4.57779 4.8078,7.89676 -0.64282,11.41017 l -4.44916,2.86777 3.64178,5.03122 c 2.00287,2.76715 5.98059,6.39035 8.83924,8.05154 8.09338,4.70322 9.95196,11.06323 5.63793,19.29239 -3.33728,6.36581 -16.22924,23.56033 -21.86834,29.16675 -1.39508,1.38693 -7.26007,7.7633 -13.03363,14.1697 -8.92813,9.90693 -11.33234,11.6171 -16.0846,11.44135 -3.07306,-0.11365 -8.15661,1.1004 -11.29681,2.69784 -3.14017,1.59745 -7.38532,2.90448 -9.43366,2.90448 -2.04834,0 -5.66589,1.25153 -8.039,2.78119 -2.37311,1.52967 -6.16314,3.04309 -8.42227,3.36322 -2.25915,0.32013 -6.76221,1.39765 -10.0068,2.39453 -4.74012,1.45633 -6.09589,1.30826 -6.90015,-0.75354 z"
       id="path3886" />
    <path
       style="fill:#5ca5e2;fill-opacity:1"
       d="m 440.23999,359.46677 c 0,-0.94364 1.27295,-2.19626 2.82879,-2.7836 1.73975,-0.65677 2.5564,-0.26401 2.12128,1.02014 -0.8901,2.62692 -4.95007,4.07327 -4.95007,1.76346 z"
       id="path3884" />
    <path
       style="fill:#5ca5e2;fill-opacity:1"
       d="m 406.29944,356.49634 c 0,-1.44977 1.18054,-2.63596 2.62344,-2.63596 1.59805,0 2.22156,1.03027 1.59522,2.63596 -0.56553,1.4498 -1.74607,2.63598 -2.62345,2.63598 -0.87735,0 -1.59521,-1.18618 -1.59521,-2.63598 z"
       id="path3882" />
    <g
       id="g4019">
      <path
         id="path3896"
         d="m 239.11764,406.83209 c 0.52008,-0.82779 -2.24597,-4.02826 -6.14677,-7.11206 -4.43066,-3.50275 -7.08211,-7.05978 -7.06502,-9.47812 0.0222,-3.14374 0.35275,-3.37582 1.759,-1.2352 1.36013,2.07044 1.73751,2.11853 1.75899,0.22418 0.0229,-2.02209 0.5325,-2.03146 3.15346,-0.058 1.71936,1.29465 2.49802,1.63028 1.73033,0.74582 -0.76768,-0.8844 0.4381,-2.64407 2.67952,-3.91031 3.92146,-2.21536 3.873,-2.26318 -1.28375,-1.26718 -4.09262,0.79047 -4.72582,0.59259 -2.67951,-0.83743 1.47373,-1.02994 1.87566,-1.90982 0.89318,-1.95536 -0.9825,-0.0455 -0.22597,-1.24386 1.68118,-2.66287 2.50021,-1.86035 2.74937,-2.5957 0.89317,-2.63598 -1.94204,-0.0422 -1.78328,-0.64603 0.64643,-2.4585 2.27969,-1.70056 2.56244,-2.6185 0.96763,-3.14145 -2.9415,-0.96454 -12.53,3.7518 -11.37268,5.59397 0.49054,0.78076 -0.7068,1.83087 -2.66073,2.33352 -4.2255,1.08704 -4.65172,-1.22464 -0.8111,-4.39901 1.50783,-1.24628 3.82371,-3.21677 5.14639,-4.37891 1.32266,-1.16214 2.78794,-1.73612 3.25614,-1.27551 0.46818,0.4606 1.97064,-0.51593 3.33877,-2.17002 2.16548,-2.61819 2.11966,-2.87222 -0.35402,-1.9624 -1.56285,0.5748 -3.97441,0.33957 -5.35904,-0.52273 -1.38465,-0.86228 -1.64173,-1.57993 -0.57135,-1.59473 1.07042,-0.0148 2.97706,-2.20157 4.237,-4.85953 2.14814,-4.53168 1.82303,-6.40045 -0.53587,-4.22037 -4.09373,3.78336 -4.32948,3.81101 -5.18109,0.60736 -0.49072,-1.846 -0.14996,-4.66116 0.75722,-6.25589 1.76503,-3.10266 0.36152,-7.01431 -2.00131,-5.57772 -0.78328,0.47625 -2.80785,-0.63819 -4.49898,-2.47654 -2.97354,-3.23233 -2.79019,-3.38168 5.56688,-4.53421 13.76584,-1.89843 5.21426,-3.40893 -0.73662,-3.31497 -10.67697,0.16861 -12.06534,-1.42764 -3.57269,-4.10776 5.33918,-1.68493 5.44682,-1.85647 1.33976,-2.13504 -4.12539,-0.27981 -4.19349,-0.41806 -0.89317,-1.8132 1.96498,-0.83066 2.52042,-1.56588 1.23431,-1.63379 -1.28608,-0.068 -1.84153,-0.91433 -1.23431,-1.88086 0.60721,-0.96652 -0.24764,-1.75732 -1.89964,-1.75732 -2.46741,0 -2.60663,-0.47061 -0.77988,-2.63596 2.96306,-3.51226 6.55534,-3.3327 8.78863,0.43934 1.00145,1.6914 1.84525,2.1322 1.87513,0.97955 0.0299,-1.15265 1.52957,-1.81626 3.33267,-1.47464 1.8031,0.34158 4.41563,-0.0871 5.80562,-0.95267 2.96031,-1.84338 2.23533,-1.98926 -16.0015,-3.21951 -2.02087,-0.13629 -2.04417,-0.64841 -0.13257,-2.91431 1.56189,-1.85135 3.82061,-2.38455 6.91755,-1.63296 3.63803,0.8829 4.14505,0.66235 2.42764,-1.056 -1.7068,-1.70777 -1.51592,-2.66141 0.89319,-4.46176 4.87844,-3.64582 7.52513,-2.7977 7.58661,2.43106 0.0539,4.58828 0.18705,4.66333 2.63281,1.48428 2.29593,-2.98428 2.17689,-3.68887 -1.09465,-6.48016 -2.01888,-1.72251 -4.81134,-2.70124 -6.20552,-2.17493 -1.39417,0.52627 -2.53485,-0.0291 -2.53485,-1.23428 0,-1.60697 2.73854,-1.93595 10.2715,-1.23386 5.6493,0.52655 8.72255,0.38007 6.82939,-0.3255 -4.62058,-1.72208 -0.19802,-3.46808 6.85527,-2.70642 3.76098,0.40616 4.55407,0.0359 3.06366,-1.43027 -2.94681,-2.89895 -2.45734,-5.58481 0.56769,-3.11502 2.11334,1.7254 2.52829,1.44711 2.29937,-1.54214 -0.15359,-2.00611 -1.51498,-3.70993 -3.02524,-3.78623 -1.51028,-0.0763 -0.37106,-0.98688 2.53159,-2.02347 6.37885,-2.27807 13.58945,-8.38171 9.90179,-8.38171 -1.62796,0 -1.29135,-0.84393 0.99161,-2.48618 3.75424,-2.70056 6.56879,-0.61074 4.90879,3.64484 -0.60959,1.5628 0.49853,2.34692 3.29138,2.32907 3.37384,-0.0215 3.67801,-0.36536 1.53088,-1.73041 -2.03332,-1.29266 -1.27942,-1.70999 3.1261,-1.73041 4.53784,-0.021 5.80563,-0.76855 5.80563,-3.42312 0,-1.86792 1.52103,-3.87113 3.38004,-4.45154 2.2225,-0.69394 3.29306,-2.53949 3.1261,-5.38913 -0.31039,-5.29738 -2.97476,-5.5078 -8.54117,-0.67456 -3.05197,2.64999 -3.35345,3.39355 -1.09106,2.69113 4.82803,-1.49902 3.69372,1.61514 -1.42383,3.90897 -6.3949,2.86639 -8.88632,2.62539 -6.16815,-0.59656 1.84158,-2.18295 1.64892,-2.64063 -1.12104,-2.6629 -2.68243,-0.0216 -2.84039,-0.34098 -0.79757,-1.6128 1.40097,-0.87222 2.82373,-3.36815 3.16165,-5.54645 0.77231,-4.97842 3.7847,-8.62971 7.11966,-8.62971 1.41144,0 2.06942,-0.79079 1.46222,-1.75731 -0.60724,-0.96652 -0.2927,-1.75731 0.69897,-1.75731 0.99164,0 2.44583,1.10457 3.23154,2.45462 1.22287,2.10127 1.76007,2.10127 3.73187,0 1.26685,-1.35005 1.66879,-2.51021 0.89316,-2.57814 -0.77557,-0.0679 0.19754,-0.80313 2.16251,-1.6338 3.28439,-1.38843 3.21234,-1.52498 -0.89316,-1.69226 l -4.46585,-0.18201 4.21716,-3.45615 c 2.31946,-1.90089 3.57001,-3.45616 2.77905,-3.45616 -0.79095,0 1.22187,-1.93058 4.47296,-4.2902 3.2511,-2.35961 7.17002,-6.11586 8.70871,-8.34725 2.74021,-3.97383 2.72452,-3.99446 -0.76529,-1.00575 -2.74838,2.35373 -4.04742,2.57466 -5.68212,0.96652 -3.70667,-3.64641 -2.57428,-7.03273 1.88604,-5.64009 3.5596,1.11142 3.73416,0.92925 1.56894,-1.63733 -1.98047,-2.34753 -2.02423,-3.86653 -0.23385,-8.11861 1.94607,-4.6219 2.64712,-5.00143 6.02301,-3.26051 3.63717,1.87566 3.67852,1.81033 0.86142,-1.36078 -2.63642,-2.96773 -2.66455,-3.59706 -0.25788,-5.77034 2.07669,-1.87536 3.01111,-1.94607 4.04157,-0.30588 0.9649,1.53588 2.78836,0.85746 6.5101,-2.42213 l 5.16977,-4.55553 -4.46585,0.30211 c -2.45624,0.16614 -6.33197,0.17911 -8.61277,0.0288 -3.42703,-0.22586 -3.73712,-0.67166 -1.78634,-2.56827 1.29831,-1.26225 3.94571,-2.88638 5.88318,-3.60919 2.9544,-1.10219 3.09848,-1.57805 0.89316,-2.95004 -2.14386,-1.33379 -1.9697,-1.66367 0.94323,-1.7863 3.5727,-0.15044 3.5727,-0.15044 0,-1.66074 -3.57269,-1.51027 -3.57269,-1.51027 0,-1.66069 2.8078,-0.11824 3.03263,-0.48677 1.05005,-1.72136 -2.13238,-1.32791 -2.06329,-2.02283 0.4466,-4.4919 1.63308,-1.60655 2.99365,-2.27139 3.02356,-1.47749 0.0298,0.79396 0.86709,0.0712 1.86047,-1.60605 1.9231,-3.24704 9.79727,-3.71196 13.71573,-0.80983 1.55688,1.15309 2.23291,2.80072 2.23291,0.83612 0,-2.61084 -2.44937,-3.67444 -11.59073,-5.03305 -3.38693,-0.50337 -3.35059,-0.72624 0.78152,-4.7912 2.72431,-2.68002 4.59632,-3.48831 5.04081,-2.17648 0.38891,1.14775 1.77893,2.08682 3.08889,2.08682 1.30997,0 2.64972,0.76494 2.97724,1.69988 0.32751,0.93493 1.52267,-0.24718 2.65594,-2.62688 1.92951,-4.05168 1.78754,-4.25937 -2.23294,-3.26669 -3.24789,0.80194 -4.29342,0.34654 -4.29342,-1.87012 0,-1.6116 0.64129,-2.54033 1.42507,-2.06377 0.78376,0.47652 2.45887,0.23784 3.72245,-0.53041 1.79458,-1.09108 1.69067,-1.62584 -0.47467,-2.44328 -1.52463,-0.57553 -3.24719,-0.29018 -3.82788,0.63411 -1.51026,2.40393 -6.6384,2.08392 -5.80942,-0.36255 0.80762,-2.38353 5.32858,-3.6573 13.37955,-3.76956 5.74728,-0.0801 9.17156,-3.60602 5.60693,-5.77327 -1.26328,-0.76807 -1.09265,-1.64487 0.50967,-2.61908 1.92832,-1.1724 1.96289,-1.90305 0.1735,-3.66339 -1.78943,-1.76033 -1.43018,-2.63877 1.80127,-4.40422 3.25396,-1.77774 3.43048,-2.21734 0.91043,-2.26754 -1.71936,-0.0342 -3.12613,-0.83699 -3.12613,-1.78389 0,-2.1578 13.0451,-8.81299 17.3457,-8.84919 2.71771,-0.0229 2.79535,-0.28244 0.51776,-1.7304 -1.47372,-0.93695 -1.87567,-1.72773 -0.89319,-1.75733 0.98252,-0.0296 0.63227,-0.77222 -0.77829,-1.6503 -2.12545,-1.32309 -2.16449,-2.0708 -0.22784,-4.366351 1.28522,-1.52346 3.44412,-2.76992 4.79758,-2.76992 1.55386,0 2.46078,-1.981209 2.46078,-5.375679 0,-2.97261 0.76367,-4.911385 1.70835,-4.337013 0.93957,0.571251 1.26565,2.397209 0.72464,4.057663 -0.63892,1.960976 -0.44593,2.293457 0.55065,0.948708 2.08762,-2.816887 8.36298,-2.051888 9.77564,1.191658 0.93149,2.138901 1.41165,1.973183 2.54596,-0.878647 0.76886,-1.933052 2.60354,-5.36631 4.07702,-7.629471 1.47352,-2.263191 2.89817,-6.136108 3.1659,-8.606491 0.26776,-2.470398 1.4147,-5.363457 2.5488,-6.429047 2.43057,-2.283714 0.62548,15.038506 -2.17868,20.9077 -1.65204,3.457756 -1.63428,3.459427 1.09884,0.103447 1.52796,-1.876137 2.77808,-4.446228 2.77808,-5.711281 0,-2.783768 0.86624,-2.848976 5.92303,-0.445816 3.54258,1.68351 3.61402,1.625229 0.77576,-0.63308 -4.63327,-3.686531 -3.60895,-12.887932 1.06522,-9.568474 0.34021,0.241653 1.90936,-0.614487 3.48693,-1.902496 2.98667,-2.4384 10.18519,-1.320602 10.18519,1.581596 0,0.90139 0.83215,1.638901 1.84918,1.638901 1.23059,0 1.18457,-1.221718 -0.13755,-3.651947 -1.09271,-2.008583 -1.55804,-4.75103 -1.03402,-6.09433 0.52398,-1.343334 0.18396,-2.909782 -0.75562,-3.481022 -2.09732,-1.27515 0.17081,-0.83123 1.64563,-0.83123 1.10279,0 13.38596,4.536869 11.64105,7.3913 -1.11816,1.82914 -0.85403,1.847252 1.35013,0.09254 1.50711,-1.199768 3.26914,-1.661057 3.91562,-1.025108 1.64008,1.613419 1.46582,-0.206467 -0.50894,-5.31617 -1.29587,-3.35289 -1.06369,-4.592491 1.00638,-5.373951 1.47992,-0.55867 2.26361,-1.695629 1.74157,-2.526581 -0.52206,-0.830967 0.14386,-2.9814 1.4798,-4.778709 2.15094,-2.893791 2.78736,-2.9753 5.55948,-0.71199 2.84103,2.3195 3.02036,2.214432 1.93933,-1.13623 -0.75897,-2.35247 -0.20431,-4.49778 1.52869,-5.91267 1.49591,-1.22134 2.71985,-4.364338 2.71985,-6.984478 0,-5.73805 4.73248,-6.54215 6.49063,-1.10281 1.03818,3.211891 1.31537,3.29166 2.25925,0.65012 0.75769,-2.120461 1.84719,-2.54199 3.68392,-1.42527 2.25745,1.37252 2.21409,2.01395 -0.32269,4.771481 -2.66406,2.89595 -5.75625,9.238998 -6.69,13.72327 -0.20123,0.96653 -1.1138,2.643879 -2.02795,3.72744 -0.95493,1.13192 -1.02186,3.6726 -0.15735,5.971649 1.47046,3.910473 1.58636,3.86565 5.09466,-1.970139 1.97449,-3.284382 5.8873,-10.56707 8.69519,-16.183701 2.80789,-5.61665 5.75278,-10.605751 6.54422,-11.086941 2.28641,-1.39011 1.6673,5.434231 -0.70468,7.767681 -1.61655,1.59029 -1.62753,2.10878 -0.0446,2.10878 1.37336,0 1.73325,1.79895 1.04102,5.20385 -1.01749,5.004749 -0.8905,5.126099 3.31958,3.171539 3.12405,-1.450382 4.37763,-3.45274 4.37763,-6.992622 0,-2.854588 1.45346,-6.012657 3.42382,-7.43932 3.19898,-2.316227 3.21854,-2.55732 0.29773,-3.671219 -1.71936,-0.655689 -3.12451,-1.700659 -3.12253,-2.322149 0.006,-1.76656 11.32291,-2.08847 14.06949,-0.400181 3.23236,1.986921 0.97358,5.420832 -3.56585,5.420832 -2.02686,0 -3.07407,0.793648 -2.42032,1.83429 0.63382,1.008858 0.0784,3.115311 -1.23432,4.681 -2.14261,2.555531 -1.97561,2.63121 1.63254,0.739861 4.46008,-2.33791 4.91004,-1.63205 2.17011,3.40427 -1.01706,1.869499 -1.21802,3.387009 -0.4466,3.3722 3.10449,-0.05957 5.45819,-2.93322 7.53455,-9.199001 2.13995,-6.457859 7.26568,-9.208361 7.26568,-3.898819 0,1.480141 1.40674,3.201729 3.1261,3.82579 1.71936,0.62405 3.71668,1.98312 4.43854,3.020149 0.89032,1.27914 1.32117,1.1968 1.33972,-0.256001 0.0153,-1.193748 1.2334,-1.686199 2.75251,-1.112759 2.24255,0.846569 2.32165,1.517399 0.44653,3.78849 -1.95294,2.365509 -1.79334,2.580589 1.11725,1.505466 2.32293,-0.858047 4.49603,-0.09249 6.87842,2.423153 1.91546,2.022591 3.20086,3.851997 2.85644,4.065331 -0.34436,0.213329 -3.9693,2.591019 -8.0553,5.28373 -7.2478,4.776379 -7.56891,4.82476 -13.15625,1.982368 -8.10187,-4.121529 -11.65368,-0.48386 -3.80731,3.899311 3.10291,1.733349 5.27936,4.099751 4.83661,5.258678 -0.48084,1.25882 0.23718,1.71376 1.78357,1.129974 2.90332,-1.095993 3.58008,2.103226 0.80224,3.79216 -0.98254,0.597336 -1.78637,1.92704 -1.78637,2.954849 0,1.13829 1.10064,0.970177 2.81567,-0.430031 2.3335,-1.905159 3.09357,-1.866791 4.43848,0.224152 2.76593,4.300049 1.87414,6.726006 -3.47217,9.445755 -2.92059,1.485771 -5.66974,4.65802 -6.35107,7.328583 -0.85163,3.33802 -1.75653,4.162682 -3.10846,2.832741 -1.35193,-1.329941 -0.78656,-3.424271 1.94208,-7.193993 5.2611,-7.268448 3.51849,-12.663536 -6.84821,-21.201981 l -8.41266,-6.929008 -5.2392,3.42598 c -2.88156,1.884323 -8.3348,4.2612 -12.11831,5.28199 -3.78351,1.020782 -6.45624,2.27198 -5.9394,2.780418 0.51688,0.508461 -0.66131,4.598862 -2.61813,9.089813 -2.34421,5.379868 -3.19385,10.074379 -2.49069,13.76162 0.88391,4.635109 0.42654,5.79631 -2.66291,6.76094 -2.05154,0.64055 -4.46798,3.07396 -5.36987,5.40757 -1.97702,5.11538 -2.90448,5.19461 -9.64419,0.82396 -5.17862,-3.35827 -5.29047,-3.35788 -10.1345,0.0353 -6.72427,4.71032 -11.91442,2.11895 -18.36459,-9.169151 -4.45523,-7.796867 -5.5658,-8.695061 -9.5383,-7.714249 -2.47275,0.61055 -5.66202,2.257217 -7.08725,3.659309 -1.42523,1.402069 -4.14163,2.54921 -6.03644,2.54921 -4.01864,0 -4.07638,0.228882 -1.47494,5.845611 1.49148,3.2203 1.40256,5.26828 -0.36603,8.42997 -1.28488,2.29693 -2.12091,5.56012 -1.85785,7.25155 0.26309,1.69142 0.0531,3.07531 -0.46652,3.07531 -1.0513,0 -12.68985,-4.8125 -17.66245,-7.30333 -4.69503,-2.35183 -6.62271,-0.33313 -6.6535,6.96772 -0.038,9.02079 -2.41867,12.37835 -6.85827,9.67272 -2.85383,-1.7392 -4.0152,-1.44743 -6.9946,1.75731 -1.96494,2.11351 -4.15253,5.81976 -4.8613,8.23608 -0.7088,2.41632 -2.90985,5.65633 -4.89124,7.20009 -3.45105,2.68883 -3.47363,3.00023 -0.53717,7.40901 2.98346,4.47931 2.91486,2.86092 -2.56897,12.28992 -3.09887,5.32823 -6.4216,10.16635 -7.38382,10.75139 -0.96225,0.58501 -1.22885,2.67743 -0.59252,4.64981 1.28497,3.98271 -1.57172,6.59215 -7.26386,6.63516 -3.22272,0.0244 -3.61435,1.34836 -3.99789,13.51579 -0.33493,10.62551 -1.52497,15.80071 -5.60599,24.37998 -5.04791,10.61183 -5.09427,10.96402 -1.80771,13.73233 5.78867,4.87587 3.14987,12.94482 -3.54932,10.85312 -10.09283,-3.15128 -20.55685,9.32048 -19.84622,23.65416 0.0719,1.44977 0.003,5.00836 -0.15356,7.90793 -0.15634,2.89956 -0.14954,7.24893 0.0151,9.66525 0.16468,2.41629 0.45813,8.8891 0.6522,14.38403 0.27584,7.8121 1.22924,10.79694 4.37207,13.68768 2.2106,2.0333 4.01928,4.39222 4.01928,5.24204 0,3.56 -2.34039,7.10452 -4.69104,7.10452 -1.89386,0 -2.18008,1.20423 -1.14862,4.83264 2.71777,9.56034 1.23004,20.07248 -3.32889,23.52149 -2.32595,1.7597 -3.52774,3.21701 -2.67059,3.23852 0.85721,0.0215 0.62161,1.14963 -0.52347,2.50696 -1.14511,1.35733 -1.604,4.34137 -1.0198,6.63123 0.58419,2.28985 0.26785,6.12176 -0.70301,8.51538 -1.10583,2.72632 -1.80752,3.27438 -1.87848,1.46716 -0.0623,-1.58664 -2.12286,-3.38098 -4.5791,-3.98743 -4.52228,-1.11657 -5.07318,-2.61715 -4.73523,-12.89758 0.10331,-3.1412 -0.49929,-5.71127 -1.33902,-5.71127 -3.3425,0 -5.21383,4.76434 -4.34951,11.07373 0.92376,6.74341 -1.86597,12.65237 -5.05738,10.71203 -0.92331,-0.56137 -3.13711,0.63352 -4.91955,2.65531 -1.78247,2.02179 -4.19883,3.67599 -5.36966,3.67599 -1.17087,0 -1.61829,0.81269 -0.99427,1.80597 1.17365,1.86814 -9.67794,13.01297 -11.20648,11.50931 -0.47336,-0.4657 -2.02813,0.30185 -3.45509,1.7056 -2.72214,2.67791 -17.53276,3.65362 -15.89531,1.04718 z"
         style="fill:#5ca5e2;fill-opacity:1" />
      <path
         id="path3892"
         d="m 443.81268,62.388358 c 1.47376,-0.936928 1.87567,-1.703487 0.89319,-1.703487 -0.98251,0 -2.99213,0.76656 -4.46588,1.703487 -1.47373,0.936939 -1.87567,1.703514 -0.89316,1.703514 0.98248,0 2.99213,-0.766575 4.46585,-1.703514 z"
         style="fill:#5ca5e2;fill-opacity:1" />
      <path
         id="path3880"
         d="m 336.63193,124.6745 c 0,-2.68926 7.33554,-6.34333 11.22665,-5.59232 1.19403,0.23045 2.0593,-0.96487 1.92285,-2.65629 -0.13647,-1.69142 0.41052,-3.07531 1.21552,-3.07531 0.80499,0 1.72049,-1.71734 2.03445,-3.8163 0.70782,-4.73233 5.01559,-6.45884 5.09351,-2.04142 0.0535,3.03663 0.19198,3.04664 2.40954,0.17376 2.4563,-3.18213 4.67902,-2.42988 4.67902,1.58357 0,2.32519 -3.28989,6.06527 -9.79007,11.12967 -3.10904,2.42229 -3.27753,2.35907 -2.07877,-0.78014 1.27228,-3.33172 1.21436,-3.33585 -2.34506,-0.16698 -2.00723,1.78705 -3.64957,2.58004 -3.64957,1.76226 0,-0.8178 -1.00482,-0.26007 -2.23291,1.23938 -3.31238,4.0442 -8.48517,5.40986 -8.48517,2.24012 z"
         style="fill:#5ca5e2;fill-opacity:1" />
      <path
         id="path3878"
         d="m 344.65774,112.24444 c 2.86585,-4.30275 2.84534,-4.37005 -0.75357,-2.47526 -2.72622,1.43532 -3.69952,1.42586 -3.69952,-0.0359 0,-1.09101 1.60769,-2.39726 3.57266,-2.90276 1.965,-0.50551 3.65283,-1.81537 3.75076,-2.91079 0.0979,-1.09542 0.77414,-0.0147 1.50269,2.40161 0.72851,2.4163 0.65536,5.25683 -0.16257,6.3123 -0.81793,1.05544 -1.12671,2.27361 -0.68616,2.70702 0.44059,0.43341 -0.83502,0.90924 -2.83459,1.05741 -3.47894,0.25782 -3.50867,0.0788 -0.6897,-4.15361 z"
         style="fill:#5ca5e2;fill-opacity:1" />
      <path
         id="path3876"
         d="m 379.27563,83.59655 c 2.61432,-1.376411 3.6836,-1.199501 4.43787,0.7342 0.54657,1.401131 0.21188,3.022888 -0.74375,3.603882 -0.95559,0.581009 -1.34759,1.67688 -0.87115,2.43528 0.47647,0.758408 -1.15598,2.28537 -3.62759,3.393196 -5.46418,2.449181 -1.08967,-9.16925 0.80462,-10.166557 z"
         style="fill:#5ca5e2;fill-opacity:1" />
      <path
         id="path3874"
         d="m 398.47564,82.813721 c -1.3851,-5.42897 0.26267,-9.881432 3.65686,-9.881432 1.90012,0 2.44758,1.730499 2.04184,6.454102 -0.65033,7.570457 -4.11068,9.651619 -5.6987,3.42733 z"
         style="fill:#5ca5e2;fill-opacity:1" />
      <path
         id="path3872"
         d="m 387.99875,77.325569 c 0.46954,-2.416298 1.47787,-4.39328 2.24069,-4.39328 2.45065,0 3.34277,4.778381 1.27237,6.815109 -3.20337,3.151321 -4.43149,2.304672 -3.51306,-2.421829 z"
         style="fill:#5ca5e2;fill-opacity:1" />
      <path
         id="path3870"
         d="m 395.58136,68.538986 c -1.82132,-2.15889 -1.69925,-2.635979 0.67444,-2.635979 1.59402,0 2.91055,-0.98848 2.92559,-2.196648 0.0194,-1.554581 0.49317,-1.472771 1.62107,0.27998 1.69775,2.638271 0.67178,7.188618 -1.62082,7.188618 -0.75708,0 -2.3772,-1.18618 -3.60028,-2.635971 z"
         style="fill:#5ca5e2;fill-opacity:1" />
      <path
         id="path1364"
         d="m 457.04815,42.397301 c -1.49258,-3.826431 -0.44793,-4.854092 2.87845,-2.831673 2.04285,1.242031 2.14179,2.052021 0.4534,3.71294 -1.68835,1.660923 -2.41519,1.46867 -3.33185,-0.881279 l 0,1.1e-5 z"
         style="fill:#5ca5e2;fill-opacity:1" />
    </g>
    <path
       sodipodi:type="arc"
       style="fill:#f46f03;fill-opacity:1;stroke:none"
       id="path3057"
       sodipodi:cx="459.98712"
       sodipodi:cy="280.35342"
       sodipodi:rx="5.720047"
       sodipodi:ry="5.9583826"
       d="m 465.70717,280.35342 a 5.720047,5.9583826 0 1 1 -11.4401,0 5.720047,5.9583826 0 1 1 11.4401,0 z"
       transform="translate(1.9066824,32.413601)" />
    <text
       xml:space="preserve"
       style="font-size:13px;font-style:normal;font-weight:normal;line-height:125%;letter-spacing:0px;word-spacing:0px;fill:#230c00;fill-opacity:1;stroke:none;font-family:Sans"
       x="438.53696"
       y="298.70523"
       id="text3829"
       sodipodi:linespacing="125%"><tspan
         sodipodi:role="line"
         id="tspan3831"
         x="438.53696"
         y="298.70523"
         style="font-size:24px;fill:#ffffff;fill-opacity:1;stroke:none">Tampere</tspan></text>
  </g>
</svg>
